 <svg width="118" height="118" viewBox="0 0 118 118" fill="none" xmlns="http://www.w3.org/2000/svg">
                                <circle cx="59" cy="59" r="59" fill="#CC6666"/>
                                <path d="M9.64 56.56H28.78V63.88H9.64V56.56ZM58.6736 45.22H43.9736V53.74C45.8536 52.86 47.8536 52.42 49.9736 52.42C52.2136 52.42 54.2136 52.94 55.9736 53.98C57.7336 55.02 59.1136 56.54 60.1136 58.54C61.1136 60.54 61.6136 62.9 61.6136 65.62C61.6136 68.46 60.9536 70.98 59.6336 73.18C58.3536 75.34 56.4936 77.02 54.0536 78.22C51.6536 79.42 48.8736 80.02 45.7136 80.02C40.2336 80.02 35.7336 77.98 32.2136 73.9L37.5536 68.98C39.7136 71.58 42.3136 72.88 45.3536 72.88C47.4336 72.88 49.0336 72.26 50.1536 71.02C51.3136 69.78 51.8936 68 51.8936 65.68C51.8936 61.16 49.9936 58.9 46.1936 58.9C45.3936 58.9 44.6136 59.02 43.8536 59.26C43.0936 59.46 42.2536 59.82 41.3336 60.34H34.9136V38.44H59.7536L58.6736 45.22ZM81.1816 37.6C86.1416 37.6 89.9216 39.42 92.5216 43.06C95.1616 46.7 96.4816 51.94 96.4816 58.78C96.4816 65.58 95.1616 70.82 92.5216 74.5C89.9216 78.18 86.1416 80.02 81.1816 80.02C76.2216 80.02 72.4216 78.18 69.7816 74.5C67.1816 70.82 65.8816 65.58 65.8816 58.78C65.8816 51.94 67.1816 46.7 69.7816 43.06C72.4216 39.42 76.2216 37.6 81.1816 37.6ZM81.1816 44.62C79.8216 44.62 78.7416 45.06 77.9416 45.94C77.1416 46.82 76.5416 48.28 76.1416 50.32C75.7816 52.36 75.6016 55.18 75.6016 58.78C75.6016 62.38 75.7816 65.22 76.1416 67.3C76.5416 69.34 77.1416 70.8 77.9416 71.68C78.7416 72.56 79.8216 73 81.1816 73C82.5416 73 83.6216 72.58 84.4216 71.74C85.2216 70.86 85.8016 69.4 86.1616 67.36C86.5616 65.28 86.7616 62.42 86.7616 58.78C86.7616 55.14 86.5616 52.3 86.1616 50.26C85.8016 48.18 85.2216 46.72 84.4216 45.88C83.6216 45.04 82.5416 44.62 81.1816 44.62Z" fill="white"/>
                                <mask id="path-3-outside-1_1_1216" maskUnits="userSpaceOnUse" x="84" y="54" width="29" height="29" fill="black">
                                <rect fill="white" x="84" y="54" width="29" height="29"/>
                                <path d="M107.33 59.26L93.44 80.2L90.53 78.34L104.42 57.4L107.33 59.26ZM92.21 58.3C93.21 58.3 94.11 58.52 94.91 58.96C95.73 59.4 96.37 60.03 96.83 60.85C97.31 61.67 97.55 62.62 97.55 63.7C97.55 64.78 97.31 65.73 96.83 66.55C96.37 67.37 95.73 68 94.91 68.44C94.11 68.88 93.21 69.1 92.21 69.1C91.21 69.1 90.3 68.88 89.48 68.44C88.68 67.98 88.04 67.35 87.56 66.55C87.1 65.73 86.87 64.78 86.87 63.7C86.87 62.62 87.1 61.68 87.56 60.88C88.04 60.06 88.68 59.43 89.48 58.99C90.3 58.53 91.21 58.3 92.21 58.3ZM92.21 61.15C90.91 61.15 90.26 62 90.26 63.7C90.26 64.44 90.4 65.05 90.68 65.53C90.98 66.01 91.49 66.25 92.21 66.25C93.49 66.25 94.13 65.4 94.13 63.7C94.13 62 93.49 61.15 92.21 61.15ZM105.56 68.74C106.56 68.74 107.46 68.96 108.26 69.4C109.08 69.84 109.72 70.47 110.18 71.29C110.66 72.09 110.9 73.03 110.9 74.11C110.9 75.19 110.66 76.14 110.18 76.96C109.72 77.78 109.08 78.41 108.26 78.85C107.46 79.29 106.56 79.51 105.56 79.51C104.56 79.51 103.65 79.29 102.83 78.85C102.01 78.41 101.36 77.78 100.88 76.96C100.42 76.14 100.19 75.19 100.19 74.11C100.19 73.03 100.42 72.09 100.88 71.29C101.36 70.47 102.01 69.84 102.83 69.4C103.65 68.96 104.56 68.74 105.56 68.74ZM105.56 71.59C104.26 71.59 103.61 72.43 103.61 74.11C103.61 74.85 103.75 75.47 104.03 75.97C104.33 76.45 104.84 76.69 105.56 76.69C106.84 76.69 107.48 75.83 107.48 74.11C107.48 72.43 106.84 71.59 105.56 71.59Z"/>
                                </mask>
                                <path d="M107.33 59.26L93.44 80.2L90.53 78.34L104.42 57.4L107.33 59.26ZM92.21 58.3C93.21 58.3 94.11 58.52 94.91 58.96C95.73 59.4 96.37 60.03 96.83 60.85C97.31 61.67 97.55 62.62 97.55 63.7C97.55 64.78 97.31 65.73 96.83 66.55C96.37 67.37 95.73 68 94.91 68.44C94.11 68.88 93.21 69.1 92.21 69.1C91.21 69.1 90.3 68.88 89.48 68.44C88.68 67.98 88.04 67.35 87.56 66.55C87.1 65.73 86.87 64.78 86.87 63.7C86.87 62.62 87.1 61.68 87.56 60.88C88.04 60.06 88.68 59.43 89.48 58.99C90.3 58.53 91.21 58.3 92.21 58.3ZM92.21 61.15C90.91 61.15 90.26 62 90.26 63.7C90.26 64.44 90.4 65.05 90.68 65.53C90.98 66.01 91.49 66.25 92.21 66.25C93.49 66.25 94.13 65.4 94.13 63.7C94.13 62 93.49 61.15 92.21 61.15ZM105.56 68.74C106.56 68.74 107.46 68.96 108.26 69.4C109.08 69.84 109.72 70.47 110.18 71.29C110.66 72.09 110.9 73.03 110.9 74.11C110.9 75.19 110.66 76.14 110.18 76.96C109.72 77.78 109.08 78.41 108.26 78.85C107.46 79.29 106.56 79.51 105.56 79.51C104.56 79.51 103.65 79.29 102.83 78.85C102.01 78.41 101.36 77.78 100.88 76.96C100.42 76.14 100.19 75.19 100.19 74.11C100.19 73.03 100.42 72.09 100.88 71.29C101.36 70.47 102.01 69.84 102.83 69.4C103.65 68.96 104.56 68.74 105.56 68.74ZM105.56 71.59C104.26 71.59 103.61 72.43 103.61 74.11C103.61 74.85 103.75 75.47 104.03 75.97C104.33 76.45 104.84 76.69 105.56 76.69C106.84 76.69 107.48 75.83 107.48 74.11C107.48 72.43 106.84 71.59 105.56 71.59Z" fill="white"/>
                                <path d="M107.33 59.26L108.997 60.3655L110.121 58.6704L108.407 57.5748L107.33 59.26ZM93.44 80.2L92.3629 81.8852L94.0197 82.9442L95.1067 81.3055L93.44 80.2ZM90.53 78.34L88.8633 77.2345L87.7389 78.9296L89.4529 80.0252L90.53 78.34ZM104.42 57.4L105.497 55.7148L103.84 54.6558L102.753 56.2945L104.42 57.4ZM94.91 58.96L93.9462 60.7124L93.9552 60.7174L93.9644 60.7223L94.91 58.96ZM96.83 60.85L95.0857 61.8285L95.0947 61.8445L95.104 61.8604L96.83 60.85ZM96.83 66.55L95.104 65.5396L95.0947 65.5555L95.0857 65.5715L96.83 66.55ZM94.91 68.44L93.9644 66.6777L93.9552 66.6826L93.9462 66.6876L94.91 68.44ZM89.48 68.44L88.4831 70.1738L88.5085 70.1884L88.5344 70.2023L89.48 68.44ZM87.56 66.55L85.8157 67.5285L85.83 67.554L85.845 67.579L87.56 66.55ZM87.56 60.88L85.834 59.8696L85.8301 59.8763L85.8262 59.8831L87.56 60.88ZM89.48 58.99L90.4438 60.7424L90.4512 60.7384L90.4585 60.7343L89.48 58.99ZM90.68 65.53L88.9524 66.5377L88.9678 66.5641L88.984 66.59L90.68 65.53ZM108.26 69.4L107.296 71.1524L107.305 71.1574L107.314 71.1623L108.26 69.4ZM110.18 71.29L108.436 72.2685L108.45 72.294L108.465 72.319L110.18 71.29ZM110.18 76.96L108.454 75.9496L108.445 75.9655L108.436 75.9815L110.18 76.96ZM108.26 78.85L107.314 77.0877L107.305 77.0926L107.296 77.0976L108.26 78.85ZM102.83 78.85L103.776 77.0877L102.83 78.85ZM100.88 76.96L99.1357 77.9385L99.1447 77.9545L99.154 77.9704L100.88 76.96ZM100.88 71.29L99.154 70.2796L99.1501 70.2863L99.1462 70.2931L100.88 71.29ZM102.83 69.4L101.884 67.6377H101.884L102.83 69.4ZM104.03 75.97L102.285 76.9472L102.309 76.9892L102.334 77.03L104.03 75.97ZM105.663 58.1545L91.7733 79.0945L95.1067 81.3055L108.997 60.3655L105.663 58.1545ZM94.5171 78.5148L91.6071 76.6548L89.4529 80.0252L92.3629 81.8852L94.5171 78.5148ZM92.1967 79.4455L106.087 58.5055L102.753 56.2945L88.8633 77.2345L92.1967 79.4455ZM103.343 59.0852L106.253 60.9452L108.407 57.5748L105.497 55.7148L103.343 59.0852ZM92.21 60.3C92.9059 60.3 93.469 60.45 93.9462 60.7124L95.8738 57.2076C94.751 56.59 93.5141 56.3 92.21 56.3V60.3ZM93.9644 60.7223C94.4453 60.9804 94.8099 61.3368 95.0857 61.8285L98.5743 59.8715C97.9301 58.7232 97.0147 57.8196 95.8556 57.1977L93.9644 60.7223ZM95.104 61.8604C95.3811 62.3338 95.55 62.9257 95.55 63.7H99.55C99.55 62.3143 99.2389 61.0062 98.556 59.8396L95.104 61.8604ZM95.55 63.7C95.55 64.4743 95.3811 65.0662 95.104 65.5396L98.556 67.5604C99.2389 66.3938 99.55 65.0857 99.55 63.7H95.55ZM95.0857 65.5715C94.8099 66.0632 94.4453 66.4196 93.9644 66.6777L95.8556 70.2023C97.0147 69.5804 97.9301 68.6768 98.5743 67.5285L95.0857 65.5715ZM93.9462 66.6876C93.469 66.95 92.9059 67.1 92.21 67.1V71.1C93.5141 71.1 94.751 70.81 95.8738 70.1924L93.9462 66.6876ZM92.21 67.1C91.5147 67.1 90.9334 66.9501 90.4256 66.6777L88.5344 70.2023C89.6666 70.8099 90.9053 71.1 92.21 71.1V67.1ZM90.4769 66.7062C89.9758 66.418 89.5816 66.0321 89.275 65.521L85.845 67.579C86.4984 68.6679 87.3842 69.542 88.4831 70.1738L90.4769 66.7062ZM89.3043 65.5715C89.0355 65.0923 88.87 64.4889 88.87 63.7H84.87C84.87 65.0711 85.1645 66.3677 85.8157 67.5285L89.3043 65.5715ZM88.87 63.7C88.87 62.9098 89.0359 62.3255 89.2938 61.8769L85.8262 59.8831C85.1641 61.0345 84.87 62.3302 84.87 63.7H88.87ZM89.286 61.8904C89.5914 61.3687 89.9734 61.0012 90.4438 60.7424L88.5162 57.2376C87.3866 57.8588 86.4886 58.7513 85.834 59.8696L89.286 61.8904ZM90.4585 60.7343C90.9606 60.4526 91.5302 60.3 92.21 60.3V56.3C90.8898 56.3 89.6394 56.6074 88.5015 57.2457L90.4585 60.7343ZM92.21 59.15C91.0864 59.15 89.9445 59.5451 89.1588 60.5726C88.4507 61.4986 88.26 62.6515 88.26 63.7H92.26C92.26 63.3959 92.2897 63.1967 92.3199 63.0784C92.3494 62.9627 92.3706 62.9575 92.3362 63.0024C92.2936 63.0581 92.2257 63.1124 92.156 63.1428C92.0982 63.168 92.1004 63.15 92.21 63.15V59.15ZM88.26 63.7C88.26 64.6804 88.4443 65.6667 88.9524 66.5377L92.4076 64.5223C92.3557 64.4333 92.26 64.1996 92.26 63.7H88.26ZM88.984 66.59C89.7501 67.8157 91.0143 68.25 92.21 68.25V64.25C92.0655 64.25 92.0645 64.2253 92.1391 64.2604C92.1779 64.2786 92.2255 64.3079 92.2731 64.3502C92.3206 64.3924 92.3545 64.4355 92.376 64.47L88.984 66.59ZM92.21 68.25C93.3351 68.25 94.4714 67.8466 95.2477 66.8155C95.9437 65.8912 96.13 64.7435 96.13 63.7H92.13C92.13 64.006 92.1005 64.2078 92.0702 64.3288C92.0403 64.4476 92.0185 64.4544 92.0523 64.4095C92.0944 64.3535 92.1643 64.2955 92.2404 64.2618C92.3048 64.2333 92.3109 64.25 92.21 64.25V68.25ZM96.13 63.7C96.13 62.6565 95.9437 61.5087 95.2477 60.5845C94.4714 59.5534 93.3351 59.15 92.21 59.15V63.15C92.3109 63.15 92.3048 63.1667 92.2404 63.1382C92.1643 63.1045 92.0944 63.0465 92.0523 62.9905C92.0185 62.9456 92.0403 62.9524 92.0702 63.0712C92.1005 63.1922 92.13 63.394 92.13 63.7H96.13ZM105.56 70.74C106.256 70.74 106.819 70.89 107.296 71.1524L109.224 67.6476C108.101 67.03 106.864 66.74 105.56 66.74V70.74ZM107.314 71.1623C107.795 71.4204 108.16 71.7768 108.436 72.2685L111.924 70.3115C111.28 69.1632 110.365 68.2596 109.206 67.6377L107.314 71.1623ZM108.465 72.319C108.731 72.7619 108.9 73.3345 108.9 74.11H112.9C112.9 72.7255 112.589 71.4181 111.895 70.261L108.465 72.319ZM108.9 74.11C108.9 74.8843 108.731 75.4762 108.454 75.9496L111.906 77.9704C112.589 76.8038 112.9 75.4957 112.9 74.11H108.9ZM108.436 75.9815C108.16 76.4732 107.795 76.8296 107.314 77.0877L109.206 80.6123C110.365 79.9904 111.28 79.0868 111.924 77.9385L108.436 75.9815ZM107.296 77.0976C106.819 77.36 106.256 77.51 105.56 77.51V81.51C106.864 81.51 108.101 81.22 109.224 80.6024L107.296 77.0976ZM105.56 77.51C104.865 77.51 104.283 77.3601 103.776 77.0877L101.884 80.6123C103.017 81.2199 104.255 81.51 105.56 81.51V77.51ZM103.776 77.0877C103.287 76.8256 102.904 76.459 102.606 75.9496L99.154 77.9704C99.8158 79.101 100.733 79.9944 101.884 80.6123L103.776 77.0877ZM102.624 75.9815C102.355 75.5023 102.19 74.8989 102.19 74.11H98.19C98.19 75.4811 98.4845 76.7777 99.1357 77.9385L102.624 75.9815ZM102.19 74.11C102.19 73.3198 102.356 72.7355 102.614 72.2869L99.1462 70.2931C98.4841 71.4445 98.19 72.7402 98.19 74.11H102.19ZM102.606 72.3004C102.904 71.791 103.287 71.4244 103.776 71.1623L101.884 67.6377C100.733 68.2556 99.8158 69.149 99.154 70.2796L102.606 72.3004ZM103.776 71.1623C104.283 70.8899 104.865 70.74 105.56 70.74V66.74C104.255 66.74 103.017 67.0301 101.884 67.6377L103.776 71.1623ZM105.56 69.59C104.445 69.59 103.305 69.9765 102.516 70.996C101.802 71.9183 101.61 73.0676 101.61 74.11H105.61C105.61 73.8124 105.639 73.6196 105.668 73.507C105.697 73.3974 105.716 73.3965 105.679 73.444C105.635 73.5018 105.566 73.5552 105.498 73.5843C105.443 73.6083 105.448 73.59 105.56 73.59V69.59ZM101.61 74.11C101.61 75.095 101.796 76.074 102.285 76.9472L105.775 74.9928C105.704 74.866 105.61 74.605 105.61 74.11H101.61ZM102.334 77.03C103.1 78.2557 104.364 78.69 105.56 78.69V74.69C105.416 74.69 105.415 74.6653 105.489 74.7004C105.528 74.7186 105.576 74.7479 105.623 74.7902C105.671 74.8324 105.704 74.8755 105.726 74.91L102.334 77.03ZM105.56 78.69C106.694 78.69 107.832 78.2777 108.604 77.239C109.295 76.3112 109.48 75.1599 109.48 74.11H105.48C105.48 74.4225 105.45 74.6305 105.419 74.7572C105.388 74.8821 105.364 74.8932 105.396 74.851C105.436 74.7973 105.504 74.7385 105.582 74.7035C105.649 74.6736 105.658 74.69 105.56 74.69V78.69ZM109.48 74.11C109.48 73.0727 109.292 71.9285 108.591 71.0079C107.811 69.9845 106.676 69.59 105.56 69.59V73.59C105.664 73.59 105.661 73.607 105.598 73.5798C105.524 73.5474 105.454 73.4903 105.409 73.4321C105.373 73.3847 105.393 73.3871 105.422 73.4998C105.451 73.615 105.48 73.8105 105.48 74.11H109.48Z" fill="#CC6666" mask="url(#path-3-outside-1_1_1216)"/>
                                </svg>
