<svg width="16" height="16" viewBox="0 0 16 16" fill="none" xmlns="http://www.w3.org/2000/svg">
<g id="Vector">
<path d="M0 0H2V2H0V0Z" fill="white"/>
<path d="M1 1H3V3H1V1Z" fill="white"/>
<path d="M2 2H4V4H2V2Z" fill="white"/>
<path d="M3 3H5V5H3V3Z" fill="white"/>
<path d="M4 4H6V6H4V4Z" fill="white"/>
<path d="M5 5H7V7H5V5Z" fill="white"/>
<path d="M6 6H8V8H6V6Z" fill="white"/>
<path d="M7 7H9V9H7V7Z" fill="white"/>
<path d="M8 8H10V10H8V8Z" fill="white"/>
<path d="M9 9H11V11H9V9Z" fill="white"/>
<path d="M10 10H12V12H10V10Z" fill="white"/>
<path d="M11 11H13V13H11V11Z" fill="white"/>
<path d="M12 12H14V14H12V12Z" fill="white"/>
<path d="M13 13H15V15H13V13Z" fill="white"/>
<path d="M14 14H16V16H14V14Z" fill="white"/>
<path d="M16 0H14V2H16V0Z" fill="white"/>
<path d="M15 1H13V3H15V1Z" fill="white"/>
<path d="M14 2H12V4H14V2Z" fill="white"/>
<path d="M13 3H11V5H13V3Z" fill="white"/>
<path d="M12 4H10V6H12V4Z" fill="white"/>
<path d="M11 5H9V7H11V5Z" fill="white"/>
<path d="M10 6H8V8H10V6Z" fill="white"/>
<path d="M9 7H7V9H9V7Z" fill="white"/>
<path d="M8 8H6V10H8V8Z" fill="white"/>
<path d="M7 9H5V11H7V9Z" fill="white"/>
<path d="M6 10H4V12H6V10Z" fill="white"/>
<path d="M5 11H3V13H5V11Z" fill="white"/>
<path d="M4 12H2V14H4V12Z" fill="white"/>
<path d="M3 13H1V15H3V13Z" fill="white"/>
<path d="M2 14H0V16H2V14Z" fill="white"/>
</g>
</svg>
