<svg width="92" height="102" viewBox="0 0 92 102" fill="none" xmlns="http://www.w3.org/2000/svg">
<g id="Vector">
<path d="M30.1783 86.3455C30.1783 86.5388 30.0497 86.732 30.2426 87.0541C30.3069 87.183 30.95 87.4407 31.2716 87.6339C31.5931 87.8272 32.0433 87.956 32.1719 88.0849C32.3649 88.3426 32.5578 88.6003 32.815 88.7935C33.0723 89.0512 33.3295 89.2445 33.5868 89.4378C33.844 89.631 34.1012 89.8887 34.4228 90.082C34.68 90.2752 35.0016 90.4685 35.3231 90.7262C35.6447 90.9195 36.0948 91.3704 36.2235 91.3704C36.6093 91.3704 36.8666 91.306 37.0595 91.1771C37.1238 91.1771 36.545 90.7262 36.2235 90.4685C36.0948 90.3396 35.8376 90.2752 35.7733 90.2108C35.5804 90.0175 35.1302 89.631 35.2588 89.5666C35.3874 89.5022 35.8376 89.7598 36.0948 89.9531C36.4807 90.1464 36.8666 90.3396 37.1881 90.5973C37.574 90.7906 37.9598 90.9839 38.3457 91.1771C38.6029 91.306 38.9888 91.4992 39.1817 91.6281C39.7605 92.2079 40.3393 92.2079 40.9181 92.3367C41.5612 92.4656 42.2043 92.6588 42.8474 92.8521C43.4262 93.0454 44.0049 93.3031 44.5837 93.4963C44.9696 93.6896 45.4198 93.8184 45.8699 93.9473L47.1561 94.3982C47.7349 94.5915 48.378 94.7848 48.8925 94.8492C49.5356 94.9136 49.7928 95.0424 49.9214 95.3646C50.0501 95.6867 50.3073 96.1376 51.2076 96.202C51.7221 96.202 52.3009 96.3953 52.8797 96.5241C53.4585 96.5886 53.9087 96.5886 54.1659 96.2665C54.2945 96.0732 54.6804 95.9444 55.0662 96.0088C55.2592 96.0088 55.5164 96.0732 55.7093 96.1376C55.9023 96.202 56.1595 96.2664 56.3524 96.3953C57.1242 96.7818 57.8316 96.7818 58.6033 96.7174C59.375 96.653 59.9538 96.653 60.4683 96.7174C60.9827 96.7818 61.3686 96.9751 61.9474 97.2328C62.3976 97.4905 62.9763 97.4905 63.2979 97.2328C63.7481 96.9107 64.2625 96.9751 64.8413 97.1684C65.3558 97.2972 65.7417 97.3616 66.1275 97.0395C66.2561 96.9107 66.7706 96.7818 67.1565 96.7818C67.5424 96.7818 67.6067 97.0395 67.671 97.1684C67.8639 97.5549 68.0568 97.6193 68.9572 97.2328C69.4716 97.0395 69.8575 96.9107 70.5006 97.0395C71.208 97.2328 72.044 97.1684 72.9444 96.9107C73.2016 96.7818 73.7161 96.7174 73.8447 96.7174C74.6807 96.9107 74.745 96.5886 75.0666 96.3309C75.4525 96.0732 75.774 95.8155 76.2242 95.6222C76.6743 95.429 77.2531 95.3001 78.0248 95.1713C78.6036 95.1069 79.1824 94.978 79.6969 94.7203C80.2757 94.5271 80.7902 94.205 81.2403 93.8184C81.6905 93.4319 82.205 93.0454 82.8481 92.6588C83.4269 92.2723 84.07 91.8214 84.7131 91.4993C85.2919 91.1771 85.935 90.855 86.5781 90.5329C86.8996 90.4041 87.2212 90.2108 87.5427 90.082C87.8643 89.9531 88.1858 89.7599 88.4431 89.5666C88.8289 89.3089 89.2791 89.1156 89.6649 88.858C90.0508 88.6003 90.3723 88.2782 90.6296 87.956C90.7582 87.7628 91.5942 87.2474 91.9158 87.183C92.6875 86.9897 92.9447 86.732 92.9447 86.3455C92.9447 86.0234 93.202 85.8301 93.7165 85.7013C93.9737 85.6369 94.3596 85.3792 94.6168 85.3148C94.8097 85.2503 95.1313 85.1859 95.1313 85.3148C95.067 85.8301 95.5171 85.5724 96.0316 85.1215C96.5461 84.735 97.1892 84.2196 97.4464 83.833C97.8323 83.2533 98.3468 82.7379 98.8612 82.1581C99.1185 81.9004 99.3757 81.6427 99.6973 81.385L100.083 80.9985C100.212 80.8697 100.34 80.7408 100.469 80.5475C100.791 80.2254 101.562 79.6456 101.627 79.7101C101.884 79.9033 102.077 79.8389 102.27 79.6456C102.463 79.4524 102.656 79.1303 102.784 78.8082C103.684 77.3909 104.585 76.2313 106.064 75.265C106.257 75.1361 106.578 74.7496 106.836 74.2986C106.964 74.1054 107.093 73.8477 107.222 73.59C107.35 73.3323 107.479 73.139 107.607 72.8814C107.607 72.8814 107.479 72.8169 107.35 72.8169C106.964 72.7525 107.222 72.4304 107.607 71.9795C107.865 71.7218 108.122 71.4641 108.379 71.2064C108.894 70.6266 109.215 70.0468 109.151 69.467C109.087 69.2093 109.087 68.8872 109.215 68.5007C109.344 68.0497 109.472 67.5343 109.601 67.0834C109.73 66.6324 109.923 66.1171 110.051 65.6017C110.115 65.4084 110.373 64.9575 110.437 64.9575C110.694 64.8931 110.887 64.7642 111.016 64.5065C111.144 64.2488 111.273 63.9911 111.337 63.6046C111.402 63.2181 111.466 62.8316 111.659 62.445C111.788 62.1873 111.852 61.9296 111.98 61.672C112.109 61.4143 112.173 61.1566 112.302 60.8989C112.495 60.3835 112.688 59.8682 112.881 59.3528C113.074 58.8374 113.138 57.9999 113.074 57.7422C112.816 57.1624 112.431 56.7759 112.045 56.325C111.98 56.1961 111.788 56.1317 111.659 56.325C111.53 56.5182 111.466 56.9048 111.466 57.098C111.53 57.8711 111.209 58.5153 110.759 59.1595C110.437 59.6749 110.115 60.2547 109.858 60.8345C109.537 61.4787 109.151 62.3162 108.829 62.1229C108.443 61.9297 108.829 61.0922 109.087 60.448C109.151 60.2547 109.279 60.0614 109.344 59.9326C109.537 59.4172 109.73 58.9018 109.794 58.4509C109.987 56.9048 110.115 55.3586 109.987 53.9414C109.987 53.2327 109.923 52.4597 109.794 51.8154C109.665 51.1712 109.472 50.6558 108.958 50.4626C108.636 50.3337 108.25 49.8828 108.186 49.303C108.122 48.9165 108.122 48.5299 108.122 48.1434C108.058 47.7569 108.058 47.3703 107.993 46.9838C107.993 46.5973 107.929 46.2107 107.929 45.8242C107.865 45.4377 107.865 45.0511 107.8 44.6646C107.736 43.7627 107.607 42.7964 107.479 41.8945C107.479 41.7012 107.414 41.3791 107.286 41.4435C107.157 41.5079 107.222 41.8945 107.222 42.0877C107.286 42.6031 107.35 43.1185 107.414 43.6339C107.414 44.1492 107.479 44.6646 107.543 45.18C107.543 45.4377 107.607 45.631 107.607 45.8886C107.607 46.1463 107.607 46.3396 107.607 46.5973C107.607 47.0482 107.607 47.4992 107.543 47.9501C107.479 48.4011 107.35 48.852 107.222 49.2386C107.093 49.6895 106.9 50.076 106.643 50.527C106.257 51.1712 106.064 52.2664 105.871 53.1039C105.742 53.7481 105.678 54.3923 105.614 55.0365C105.549 55.3586 105.549 55.6807 105.485 56.0029C105.485 56.1961 105.421 56.325 105.421 56.5182C105.357 56.6471 105.357 56.8403 105.292 56.9692C105.099 57.7422 104.906 58.5153 104.649 59.2884L104.263 60.448C104.135 60.8345 104.006 61.221 103.813 61.6075C103.684 61.8652 103.556 62.1229 103.427 62.445C103.299 62.7027 103.17 62.9604 103.106 63.2181C103.041 63.6046 102.913 63.8623 102.784 64.1844C102.72 64.3133 102.591 64.5065 102.527 64.6354C102.398 64.7642 102.334 64.9575 102.205 65.0863C101.82 65.5373 101.498 66.2459 101.305 66.7613C101.048 67.4055 100.983 67.9853 100.791 68.6295C100.726 68.8228 100.533 69.2093 100.34 69.2737C100.083 69.467 99.8259 69.6603 99.633 69.918C99.44 70.1112 99.2471 70.3689 99.0542 70.6266C98.6683 71.0775 98.3468 71.5929 98.0252 72.1727C97.3821 73.0746 96.6747 74.0409 95.903 74.8784C95.6458 75.1361 95.3885 75.4582 95.067 75.7159C94.8097 75.9736 94.4882 76.2313 94.3596 76.489C93.9094 77.262 93.202 77.9707 92.5589 78.7437C92.2373 79.1303 91.9158 79.4524 91.5942 79.8389C91.2727 80.2254 91.0154 80.5475 90.8225 80.9341C90.7582 81.0629 90.4367 81.1918 90.2437 81.3206L88.636 81.9648C88.1858 82.2225 87.6713 82.4802 87.2212 82.7379C86.7067 83.06 86.2565 83.3821 85.6777 83.6398C83.877 84.5417 81.9478 85.2503 80.0185 85.959C79.504 86.1522 78.7966 86.5388 78.475 86.5388C78.3464 86.5388 78.2178 86.5388 78.1535 86.5388C78.0248 86.5388 77.8962 86.5388 77.8319 86.6032C77.639 86.6676 77.4461 86.732 77.2531 86.7965C76.8673 86.9253 76.5457 87.1186 76.2242 87.3118C75.8383 87.5695 75.3882 87.7628 74.938 87.956C74.4878 88.1493 74.102 88.407 73.6518 88.6003C73.2016 88.7935 72.6871 88.9224 72.237 89.0512C71.9797 89.1156 71.7225 89.1801 71.4652 89.1801C71.208 89.1801 70.8865 89.2445 70.6292 89.2445C70.5649 89.2445 70.5649 89.2445 70.5006 89.2445C69.9861 89.3733 69.4716 89.5022 69.0215 89.631C68.507 89.6954 67.9925 89.8243 67.478 89.8887C65.7417 90.1464 64.0053 90.2108 62.2689 90.2752C62.076 90.2752 61.8188 90.3397 61.6258 90.3397C61.4329 90.3397 61.1757 90.4041 60.9827 90.4041C60.404 90.4685 59.6322 90.6618 59.2464 90.5329C58.7962 90.3397 58.2817 90.2752 57.8316 90.1464L57.1242 90.0175C56.8669 89.9531 56.674 89.9531 56.4167 89.8887C55.9666 89.7599 55.5807 89.631 55.1949 89.5666C54.809 89.4378 54.3588 89.3733 53.973 89.2445C53.5871 89.1156 53.1369 89.0512 52.7511 88.9868C52.5582 88.9224 52.3009 88.9224 52.108 88.9224C51.9151 88.9224 51.6578 88.858 51.4649 88.858C50.8218 88.7935 50.1144 88.7291 49.4713 88.5358C48.7639 88.407 48.1208 88.2137 47.4134 88.0849C47.0918 88.0205 46.706 87.8916 46.513 87.7628C46.0629 87.4407 45.6127 87.183 45.0982 86.9897C44.648 86.7965 44.1336 86.6032 43.5548 86.6032C43.4262 86.6032 43.2332 86.4743 43.1046 86.4099C42.7187 86.2167 42.3329 86.0234 41.8827 85.8301L40.7251 85.2503C39.9534 84.8638 39.1817 84.4129 38.41 83.9619C37.7026 83.4465 36.9309 83.1888 36.1591 82.8023C35.7733 82.609 35.3874 82.4158 35.0659 82.1581C34.68 81.9004 34.3585 81.7071 34.0369 81.3206C33.6511 80.9341 33.1366 80.5475 32.6864 80.0966C32.3006 79.7101 31.8504 79.3235 31.4645 78.937L30.1783 77.7774L28.9564 76.6178L27.9918 75.6515C27.6702 75.3294 27.3487 75.0073 27.0271 74.6852C26.6413 74.2342 26.1911 73.8477 25.8053 73.3967C25.4194 72.9458 25.0335 72.4948 24.6477 72.0439C24.4548 71.8506 24.3261 71.6573 24.1332 71.3997C24.0046 71.2064 23.8117 70.9487 23.683 70.7554C22.3325 68.7584 20.7891 66.8257 20.0174 64.5065C19.9531 64.3133 19.7601 64.0556 19.6315 63.9267C19.5029 63.7335 19.31 63.4758 19.1813 63.2825C19.0527 63.0892 18.9241 62.8316 18.7955 62.5739C18.5382 62.1229 18.3453 61.6075 18.0881 61.1566C17.8951 60.6412 17.7022 60.1903 17.5093 59.6749C17.3164 59.1595 17.1234 58.7086 16.9948 58.1932C16.8662 57.6778 16.6733 57.2269 16.5446 56.7115L16.416 56.325L16.3517 55.9384C16.2874 55.6807 16.2231 55.4231 16.1588 55.1654C15.8372 53.9414 15.8372 53.7481 16.3517 53.6837C16.7376 53.6192 16.8662 53.2327 16.6089 52.3952C16.3517 51.3001 16.1588 50.3337 15.6443 49.4318C15.3871 48.9165 15.1941 48.4011 14.9369 47.8857C14.8083 47.628 14.744 47.3059 14.6153 47.0482L14.4224 46.6617C14.3581 46.5328 14.2938 46.404 14.2938 46.2752C14.2295 46.0819 14.1009 45.8886 14.0366 45.7598C13.7793 45.5021 13.5221 45.2444 13.3291 44.7935C13.2648 44.6002 13.2005 44.3425 13.1362 44.0204C13.1362 43.7627 13.1362 43.3762 13.2005 43.0541C13.2005 42.9897 13.2005 42.8608 13.2005 42.7964L13.1362 41.5724V39.1243C13.1362 38.7378 13.1362 38.2869 13.1362 37.9003C13.1362 37.5138 13.0076 37.1917 12.9433 36.8696C12.8147 36.3542 12.7504 35.8388 12.686 35.3235C12.6217 34.8081 12.5574 34.2283 12.5574 33.6485C12.5574 33.1331 12.6217 32.5533 12.686 31.9735C12.686 31.7158 12.7504 31.3937 12.7504 31.1361C12.7504 30.8784 12.8147 30.5563 12.879 30.2986C12.9433 29.912 12.9433 29.4611 13.0076 29.0746C13.0076 28.8813 13.0719 28.688 13.0719 28.4303C13.0719 28.2371 13.1362 28.0438 13.2005 27.7861C13.3291 27.0131 13.5221 26.24 13.715 25.4669C13.7793 25.3381 13.8436 25.0804 13.7793 25.016C13.715 25.016 13.6507 25.1448 13.5864 25.2737C13.3935 25.5958 13.2648 25.9823 13.0719 26.3688C12.9433 26.7554 12.7504 27.0775 12.6217 27.464C12.4931 27.7861 12.3645 28.1726 12.2359 28.4303C11.9786 28.8169 11.85 29.2678 11.7214 29.7188C11.5928 30.1697 11.4642 30.6207 11.3999 31.0716C11.3355 31.5226 11.2712 31.9735 11.2712 32.4889C11.2069 32.9399 11.1426 33.3908 11.1426 33.8418C11.0783 34.6148 11.0783 35.1302 10.6924 35.5812C10.3709 35.9033 10.3066 36.4831 10.3709 37.0629C10.5638 37.9648 10.4995 38.8022 10.3709 39.833C10.3066 40.2195 10.3709 40.7349 10.4352 41.2503C10.4352 41.5724 10.5638 41.8945 10.4995 42.1522C10.4352 42.7964 10.3709 43.505 10.3709 44.1492C10.3066 44.7935 10.3066 45.5021 10.3066 46.1463C10.3066 46.855 10.1137 46.9838 9.85641 46.404C9.72779 46.0819 9.59917 45.5665 9.40625 45.5021C9.14901 45.3733 9.02039 45.0511 8.89177 44.6646C8.76315 44.2781 8.69884 43.8271 8.63453 43.3762C8.57022 42.9897 8.57022 42.281 8.37729 42.2166C8.18436 42.1522 8.12005 42.9252 7.99143 43.2473C7.92712 43.3762 7.92712 43.5695 7.86281 43.6983C7.73419 44.4714 6.89816 45.5021 6.57661 45.0511C6.44799 44.9223 6.38368 44.729 6.25506 44.5358C6.19075 44.3425 6.06213 44.2137 5.99782 44.0204C5.80489 43.6339 5.67627 43.2473 5.48334 42.9252C5.41903 42.7964 5.35472 42.4099 5.29041 42.5387C4.96887 43.1185 5.09749 43.505 4.90456 44.5358C4.90456 44.6002 4.90456 44.6002 4.90456 44.6646C5.09749 45.6309 5.29041 46.7261 5.61196 47.4992C5.8692 48.1434 5.99782 48.5299 5.93351 49.303C5.93351 49.6895 5.93351 50.076 5.93351 50.3982C5.99782 50.7847 6.12644 51.0424 6.31937 51.3001C6.83385 51.8154 7.34833 52.2664 7.86281 52.5885C8.05574 52.7173 8.18436 52.9106 8.37729 53.2327C8.57022 53.5548 8.76315 53.9414 8.95608 54.3923C9.14901 54.8433 9.27763 55.2942 9.40625 55.7452C9.53486 56.1961 9.59918 56.5826 9.59918 56.9692C9.59918 57.1624 9.40625 57.2913 9.34194 57.2269C9.21332 57.1624 9.02039 56.7115 8.89177 56.5826C8.69884 56.4538 8.50591 56.4538 8.4416 56.5182C8.37729 56.5826 8.50591 57.1624 8.63453 57.4201C9.14901 58.773 9.7921 60.0614 10.3709 61.4143L11.3999 63.3469L12.4288 65.1507C12.6217 65.4728 12.8147 65.6661 13.0076 65.9882C13.2648 66.3748 13.6507 66.9546 13.715 67.2122C13.8436 67.792 14.0366 68.1786 14.2938 68.5651C14.551 68.9516 14.8726 69.2093 15.1941 69.5958C15.5157 69.9824 15.8372 70.3689 16.0945 70.7554C16.416 71.142 16.6733 71.5929 16.8662 71.915C17.252 72.8169 17.445 73.0746 18.0881 73.4612C18.5382 73.7188 19.1813 74.1698 19.5029 74.7496C19.7601 75.1361 19.5029 75.265 19.5029 75.5871C19.5029 75.6515 19.5029 75.7159 19.5672 75.7803C20.2103 76.7467 19.6958 76.2957 19.31 76.038C19.0527 75.9092 18.6669 75.6515 18.7312 75.9092C18.7955 76.2313 19.3743 76.8111 19.6315 77.0043C20.0817 77.262 20.5318 77.4553 20.7891 77.3265C21.1749 77.1976 21.2393 77.0688 22.0753 78.0351C22.847 78.937 22.7184 78.937 22.2682 78.8726C22.1396 78.8726 21.818 78.8082 21.9467 79.0658C22.0753 79.3235 22.4611 79.5812 22.6541 79.5812C23.1686 79.7101 23.5544 79.6456 24.0689 79.7745C24.2618 79.8389 24.7763 80.2899 24.8406 80.4187C25.1622 80.9985 25.548 81.385 26.1268 81.7716C26.4484 82.0292 26.7699 82.2225 26.8985 82.4802C27.0271 82.6735 27.0915 82.8667 26.9628 83.06C26.8342 83.1888 26.8985 83.5109 26.8985 83.7686C26.8985 83.8975 27.0271 84.1552 27.2201 84.2196C27.413 84.3484 27.413 84.1552 27.5416 84.1552C27.7989 84.1552 27.9918 84.0263 28.249 84.2196C28.6992 84.4773 29.2137 84.6705 29.5995 84.7994C29.9854 84.8638 30.3069 84.8638 30.4356 84.6061C30.4999 84.5417 30.95 84.6705 31.2716 84.8638C31.3359 84.9282 31.4645 84.9926 31.5288 85.1215C31.6575 85.2503 31.7218 85.3792 31.7218 85.4436C31.7861 85.6369 31.7218 85.8946 31.5931 85.8946C31.0787 85.7657 30.8214 85.8301 30.6928 85.959C30.5642 86.0878 30.4356 86.3455 30.2426 86.4099C30.2426 86.2167 30.1783 86.2811 30.1783 86.3455ZM35.0659 87.5695C35.1302 87.5051 35.3231 87.5051 35.4517 87.5695C35.516 87.5695 35.9019 87.8916 35.8376 87.8916C35.8376 88.0205 35.709 88.0849 35.5804 88.0849C35.4517 88.0849 35.1302 87.8916 35.0659 87.8916C35.0016 87.8916 35.1945 88.0849 35.1302 88.0849C34.8729 88.1493 34.6157 88.1493 34.3585 88.0849C34.2942 88.0849 33.7797 87.6984 33.844 87.5695C33.844 87.3763 34.4871 87.6339 34.8729 87.6984C34.9373 87.6984 35.1302 87.8916 35.1945 87.956C35.2588 87.956 35.0016 87.6339 35.0659 87.5695ZM59.5679 95.4934C59.375 95.4934 59.1178 95.3645 59.1178 95.3001C59.1178 95.1713 59.1821 95.0424 59.375 94.978C59.6322 94.9136 60.0181 94.8492 60.2753 94.8492C60.6612 94.7848 61.24 94.7203 60.7255 94.3982C60.6612 94.3338 60.9827 94.1405 61.1114 94.1405C61.4329 94.205 61.7545 94.205 62.076 94.205L63.0407 94.2694C63.6838 94.3338 64.2625 94.3982 64.9056 94.3982C65.4844 94.3982 65.6131 94.5271 65.2915 94.7848C64.97 94.978 64.8413 95.3001 64.3912 95.3646C63.4908 95.5578 62.4619 95.6222 61.6258 95.6222C60.7255 95.6867 60.1467 95.5578 59.5679 95.4934ZM7.7985 45.8242C7.99143 46.2107 8.12005 46.0819 8.12005 45.5665C8.18436 44.7935 8.24867 44.2781 8.57022 45.4377C8.82746 46.4684 8.89177 47.0482 8.63453 47.6924C8.57022 47.8213 8.4416 48.0145 8.37729 47.9501C8.18436 47.7569 7.99143 47.4992 7.73419 47.2415C7.54126 46.9838 7.34833 46.7261 7.1554 46.4684C7.09109 46.404 7.09109 46.0175 7.09109 46.0175C7.21971 45.8242 7.34833 45.5665 7.47695 45.5665C7.66988 45.5021 7.73419 45.6954 7.7985 45.8242ZM11.7857 61.7364C11.85 61.8008 11.9143 62.2518 11.7857 62.2518C11.6571 62.3162 11.3999 61.8652 11.2069 61.6075C11.1426 61.5431 10.8854 60.8989 11.0783 60.8345C11.3355 60.7701 11.6571 61.4787 11.7857 61.7364ZM8.50591 50.7203C8.4416 50.527 8.57022 50.3337 8.63453 50.3337C8.82746 50.4626 9.0847 50.4626 9.14901 50.8491C9.21332 51.1068 9.02039 51.2356 8.89177 51.2356C8.76315 51.1712 8.57022 50.978 8.50591 50.7203ZM51.2076 95.4934C51.2076 95.429 51.4649 95.3645 51.6578 95.429C51.9151 95.4934 51.9794 95.6867 52.0437 95.8155C52.0437 95.8799 51.9794 96.0732 51.5935 96.0088C51.1433 95.8155 51.272 95.6222 51.2076 95.4934ZM9.7921 50.8491C9.92072 50.9135 10.1137 50.978 10.178 51.3001C10.178 51.5578 10.0493 51.5578 9.98503 51.5578C9.92072 51.5578 9.66348 51.5577 9.59918 51.1068C9.53487 50.7203 9.72779 50.8491 9.7921 50.8491ZM58.1531 96.0088C58.2817 96.0732 58.539 96.1376 58.539 96.202C58.539 96.2665 58.4747 96.3953 58.2817 96.3953C58.0245 96.3953 57.8959 96.2665 57.7673 96.1376C57.7029 96.0732 57.51 96.0088 57.5743 95.9443C57.6386 95.8799 57.9602 95.9444 58.1531 96.0088ZM44.3908 92.7877C44.3265 92.8521 44.1336 92.8521 43.9406 92.7877C43.812 92.7233 43.6191 92.53 43.6191 92.53C43.6191 92.4656 43.6834 92.2079 44.1979 92.4011C44.648 92.5944 44.4551 92.7233 44.3908 92.7877ZM29.5995 83.1244C29.5352 83.1244 29.3423 82.9956 29.2137 82.8667C29.2137 82.8667 29.0851 82.6735 29.1494 82.6735C29.2137 82.6735 29.3423 82.7379 29.4709 82.8667C29.5995 82.9956 29.5995 83.1244 29.5995 83.1244ZM34.3585 88.4714C34.3585 88.4714 34.3585 88.5358 34.2942 88.5358C34.2299 88.5358 34.1012 88.407 34.0369 88.3426C34.0369 88.3426 33.9726 88.2137 34.1012 88.2137C34.2298 88.2782 34.2942 88.407 34.3585 88.4714ZM111.337 58.6441C111.337 58.5153 111.466 58.5153 111.466 58.4509C111.466 58.4509 111.53 58.5153 111.53 58.5797C111.466 58.6441 111.466 58.8374 111.402 58.8374C111.337 58.773 111.273 58.7086 111.337 58.6441ZM10.4995 52.6529C10.4995 52.7173 10.4995 52.9106 10.4352 52.9106C10.3709 52.9106 10.3709 52.7173 10.3709 52.7173C10.3709 52.5885 10.3709 52.3952 10.4352 52.4597C10.4995 52.3952 10.4995 52.6529 10.4995 52.6529ZM12.2359 58.322C12.1716 58.322 12.1073 58.1932 12.0429 58.1288V57.9355C12.1073 57.9355 12.1716 57.9355 12.1716 58.0643C12.3002 58.1932 12.3002 58.322 12.2359 58.322Z" fill="#CC6666"/>
<path d="M1.04597 41.3791C0.981655 41.3791 0.917345 41.2503 0.917345 41.1214C0.917345 40.8637 1.11028 40.9282 1.17458 40.6705C1.3032 40.2195 1.04597 39.3176 1.23889 38.9955C1.43182 38.7378 1.56044 39.5109 1.75337 39.7686C1.81768 39.8974 1.9463 40.3484 2.01061 40.2195C2.13923 40.0262 2.20354 39.5753 2.20354 39.0599C2.20354 38.8022 2.20354 38.5445 2.20354 38.2869C2.20354 38.0292 2.20354 37.7715 2.20354 37.5782C2.20354 37.2561 1.88199 36.934 1.75337 36.6763C1.68906 36.6119 1.56044 36.6763 1.56044 36.6119C1.49613 36.4186 1.23889 36.1609 1.3032 35.8388C1.36751 35.5167 1.56044 35.71 1.62475 35.6456C1.75337 35.5812 1.88199 35.7744 1.9463 35.5167C2.01061 35.1946 1.88199 34.9369 1.81768 34.6792C1.75337 34.0994 1.62475 33.5197 1.56044 32.8754C1.56044 31.9091 1.68906 30.8784 1.81768 29.8476C1.88199 29.4611 1.9463 29.0746 2.01061 28.7524C2.13923 28.4303 2.26785 28.1726 2.46078 28.1082C2.65371 28.0438 2.97526 27.7861 2.97526 27.5928C3.10388 26.9486 3.16819 26.3044 3.2325 25.7246C3.29681 24.8227 3.10388 24.0497 3.29681 23.1477C3.55405 22.568 3.74698 22.0526 4.00422 21.4728C4.26146 20.9574 4.5187 20.442 4.71163 19.9267C5.1618 19.0248 5.61197 18.1873 6.06213 17.2854C6.25506 16.8344 6.5123 16.3835 6.70523 15.9325C6.89816 15.4816 7.09109 14.9662 7.21971 14.4508C7.28402 14.322 7.34833 14.1287 7.47695 13.9354C7.60557 13.7422 7.73419 13.6133 7.7985 13.4845C8.63453 12.3893 8.82746 11.8739 8.50591 11.423C8.37729 11.2941 8.31298 11.1009 8.37729 10.8432C8.4416 10.5855 8.63453 10.2634 8.89177 9.81244C9.7921 8.45959 9.98503 8.39516 10.178 9.10381C10.2423 9.36149 10.4352 9.6836 10.7568 9.29707C11.0783 8.97496 11.0783 8.45959 11.2069 8.00863C11.2712 7.68653 11.2712 7.42884 11.3355 7.17115C11.4642 6.59136 11.6571 6.01156 11.9786 5.43176C12.3002 4.85197 12.7504 4.33659 13.2005 3.88564C13.6507 3.43469 14.0366 3.04816 14.3581 2.66163C14.6797 2.21068 14.9369 1.75972 15.1298 1.24435C15.8372 -0.237352 16.3517 -0.688303 17.252 -0.688303C17.7665 -0.688303 18.1524 -1.07484 18.6026 -1.78348C18.8598 -2.23443 18.9884 -2.62096 19.1813 -3.00749C19.3743 -3.45844 19.5029 -3.84497 19.7601 -4.36035C20.2746 -5.19783 21.1749 -5.77762 21.6251 -5.7132C21.7537 -5.7132 22.0753 -5.77762 22.2682 -5.90647C22.5255 -6.09973 22.7184 -6.35742 22.9113 -6.61511C23.0399 -6.80837 23.1686 -7.06606 23.2972 -7.1949C23.4901 -7.32375 23.683 -7.51701 23.876 -7.64586L24.4548 -8.09681C24.8406 -8.41892 25.2908 -8.6766 25.6766 -8.93429C25.9339 -9.12756 26.1268 -9.2564 26.384 -9.38524C26.6413 -9.51409 26.8985 -9.64293 27.1558 -9.77177C27.4773 -9.96504 28.0561 -10.3516 28.1847 -10.2871C28.3777 -10.1583 27.7346 -9.64293 27.3487 -9.32082C27.1558 -9.19198 26.9628 -8.99871 26.7056 -8.86987C26.5127 -8.74103 26.2554 -8.54776 26.1268 -8.41892C25.8053 -8.16123 25.4837 -7.64585 25.548 -7.51701C25.6123 -7.25933 25.6766 -6.8728 26.1911 -7.13048C26.577 -7.32375 27.1558 -7.90354 27.2201 -8.09681C27.6702 -9.19198 29.0851 -10.4804 30.3069 -11.5756C30.8857 -12.1554 31.5931 -12.6063 32.1719 -12.5419C32.8793 -12.4775 32.6221 -12.7352 32.815 -12.9929C33.2009 -13.5727 33.5224 -14.088 34.0369 -14.539C34.5514 -14.9899 35.3231 -15.3765 36.4807 -15.763C36.8666 -15.8918 37.2524 -16.0207 37.6383 -16.1495C38.2171 -16.4072 38.7958 -16.5361 39.3746 -16.7937C39.9534 -16.987 40.5322 -17.2447 40.9181 -17.6957C41.0467 -17.6957 41.6898 -17.8245 42.0756 -17.9533C42.6544 -18.1466 43.2332 -18.1466 43.7477 -18.3399C44.2622 -18.5331 44.7767 -18.7264 45.2911 -18.9841C45.8056 -19.1774 46.3201 -19.3706 46.8346 -19.5639C47.3491 -19.7571 47.9278 -19.9504 48.4423 -20.0793C49.0211 -20.2081 49.5356 -20.3369 50.1144 -20.4014C50.5002 -20.4658 50.9504 -20.5302 51.3363 -20.5946C51.7864 -20.6591 52.1723 -20.7235 52.6225 -20.7235C53.0726 -20.7879 53.5228 -20.8523 53.973 -20.9812C54.4231 -21.11 54.809 -21.1744 55.2592 -21.2388L56.5454 -21.4965C56.9955 -21.561 57.3814 -21.6898 57.8316 -21.6898L59.1178 -21.8831C59.3107 -21.8831 59.5679 -21.9475 59.6965 -22.0119C60.0824 -22.2052 58.9891 -22.9782 58.2817 -22.9138C57.3814 -22.8494 56.5454 -22.7205 55.645 -22.6561L53.0726 -22.2696C52.3009 -22.1408 51.9794 -21.9475 52.4295 -21.7542C53.0726 -21.4965 52.3009 -21.3033 51.6578 -21.2388C50.9504 -21.11 50.1787 -20.9167 49.407 -20.7879C49.0211 -20.7235 48.6353 -20.6591 48.2494 -20.5946C47.8635 -20.5302 47.542 -20.4658 47.1561 -20.4014C46.3844 -20.2725 45.677 -20.2081 44.9053 -20.0793C44.1336 -19.886 43.4262 -19.6927 42.5901 -19.435C42.0756 -19.2418 41.5612 -19.0485 41.0467 -18.8552L39.5033 -18.2754C38.9888 -18.0822 38.4743 -17.8245 37.9598 -17.6312L36.4164 -16.987C36.0305 -16.7937 35.6447 -16.6005 35.3231 -16.3428C35.1945 -16.2784 35.1302 -16.0851 35.2588 -16.0207C35.3874 -15.9563 35.9662 -16.1495 35.9019 -15.9563C35.7733 -15.763 35.1302 -15.5053 34.7443 -15.2476C34.3585 -14.9899 33.9083 -14.7967 33.5224 -14.539C33.0723 -14.2813 32.6221 -14.0236 32.1719 -13.8948C31.9147 -13.8303 31.5288 -13.7659 31.5931 -13.8948C31.6575 -14.0236 32.0433 -14.2813 32.3006 -14.4101C32.6864 -14.6678 33.1366 -14.7967 33.5868 -15.0544C33.7797 -15.1832 34.1655 -15.4409 34.1012 -15.5053C34.1012 -15.5697 33.7797 -15.5053 33.5868 -15.4409C32.9437 -15.1188 32.2362 -14.7967 31.5931 -14.4101C30.5642 -13.8948 29.5995 -13.3794 29.0851 -12.4775C29.0208 -12.3486 28.6992 -11.9621 28.3133 -11.64C27.9275 -11.3179 27.413 -10.9958 26.8985 -10.9314C26.7699 -10.9314 26.4484 -10.6093 26.1911 -10.4804C26.0625 -10.3516 25.8696 -10.2871 25.7409 -10.1583C25.6123 -10.0295 25.4837 -9.90062 25.2908 -9.8362C25.0335 -9.57851 24.712 -9.32082 24.3904 -9.12756C23.8117 -8.6766 23.2329 -8.29007 22.5898 -8.03239C22.4611 -7.96797 21.7537 -7.25933 21.6894 -7.00164C21.4965 -6.55069 21.1749 -6.16415 20.7248 -5.90647C20.0817 -5.64878 19.5672 -5.19783 18.9884 -4.68246C18.8598 -4.55361 18.7312 -4.42477 18.6026 -4.29592L18.2167 -3.90939C17.9595 -3.6517 17.7022 -3.3296 17.445 -3.07191C16.416 -2.04116 15.5157 -0.945992 14.551 0.149179C14.1009 0.728975 13.6507 1.30877 13.2005 1.82414L12.5574 2.66163L11.9143 3.56353C11.6571 3.95006 11.3355 4.6587 11.3355 4.72312C11.5928 4.85196 11.5285 5.17408 11.014 5.81829C10.6281 6.33367 10.0493 7.23557 9.7921 7.29999C8.76315 7.68652 8.69884 8.58843 8.31298 9.55475C8.18436 10.0057 7.99143 10.5211 7.7985 10.972C7.60557 11.423 7.28402 11.8739 6.83385 12.1316C6.57661 12.2605 5.99782 13.098 6.31937 13.3556C6.57661 13.6133 6.31937 14.1287 5.99782 14.7085C5.74058 15.2239 5.48335 15.8037 5.22611 16.319C5.1618 16.5123 5.03318 16.6412 4.90456 16.8344C4.64732 17.2209 4.32577 17.6075 4.13284 18.0584L3.36112 20.2488C3.10388 21.0218 2.78233 21.7305 2.5894 22.5035C2.33216 23.2766 2.13923 24.0497 1.9463 24.8227C1.81768 25.2092 1.75337 25.5958 1.68906 25.9823C1.62475 26.3688 1.56044 26.7554 1.49613 27.1419C1.3032 28.4303 1.04597 29.7832 0.788726 31.0716C0.724416 31.3937 0.660106 31.7158 0.595796 32.038C0.531486 32.3601 0.531486 32.6177 0.531486 32.9399C0.531486 33.5197 0.595796 34.035 0.724416 34.486C0.853036 34.9369 0.853036 35.8388 0.788726 36.6763C0.724416 37.5138 0.531486 38.2869 0.338557 38.5445C-0.111612 39.1243 0.0170076 40.1551 0.0170076 40.9926C-0.0473023 41.9589 0.209937 42.0877 0.467176 42.0877C0.531486 42.0877 0.853036 43.1829 0.788726 43.7627C0.788726 44.0204 0.595796 43.956 0.531486 44.0204C0.402867 44.0848 0.274247 43.956 0.209937 44.2137C0.0813174 44.6002 0.274247 45.5021 0.402867 45.6309C0.660106 45.9531 0.853036 46.4684 0.917345 46.9838C0.981655 47.2415 0.981655 47.5636 0.981655 47.8857C0.981655 48.2078 1.04597 48.5299 1.04597 48.852C1.04597 49.1741 1.17458 49.7539 1.23889 49.8828C1.36751 50.076 1.62475 50.1405 1.68906 49.8828C1.75337 49.6895 1.68906 49.1097 1.62475 48.6588C1.56044 47.9501 1.43182 47.1771 1.43182 46.5328C1.43182 46.0819 1.49613 45.6954 1.56044 45.2444C1.56044 45.0511 1.62475 44.8579 1.62475 44.6002C1.62475 44.4069 1.68906 44.1492 1.68906 43.956C1.75337 43.2473 1.75337 42.3454 1.68906 41.6368C1.62475 40.9282 1.49613 40.4772 1.23889 40.6705C1.11027 40.6705 1.11027 41.3147 1.04597 41.3791ZM1.23889 32.6822C1.23889 32.7466 1.11027 33.1331 1.04597 33.0687C0.917345 33.0043 0.981655 32.4889 0.981655 32.2312C0.981655 32.1668 1.04597 31.6514 1.17458 31.6514C1.3032 31.6514 1.23889 32.3601 1.23889 32.6822ZM41.947 -18.5331C41.8827 -18.5331 41.8827 -18.5331 41.947 -18.5331C41.947 -18.5976 42.0756 -18.662 42.0756 -18.5976L41.947 -18.5331Z" fill="#CC6666"/>
<path d="M50.4359 -11.5112C49.9214 -11.2535 49.407 -10.9958 48.8925 -10.7381L48.1208 -10.2871C47.8635 -10.1583 47.6063 -9.96504 47.3491 -9.83619C47.1561 -9.70735 46.706 -9.64293 46.706 -9.51409C46.706 -9.38524 47.1561 -9.51409 47.3491 -9.51409C47.6063 -9.44967 47.9278 -9.38524 48.0565 -9.2564C48.2494 -9.06313 48.2494 -8.74103 48.3137 -8.54776C48.5066 -8.16123 49.407 -8.16123 50.3073 -8.54776C50.5002 -8.61218 50.6932 -8.6766 50.8861 -8.74102C51.3363 -8.86987 51.8507 -8.93429 52.2366 -9.12756C52.944 -9.44967 53.3299 -9.38524 53.6514 -9.19198C53.973 -8.99871 54.6161 -8.99871 55.1949 -9.12756C55.5164 -9.19198 55.838 -9.2564 56.2238 -9.32082C56.5454 -9.38524 56.9312 -9.44967 57.2528 -9.44967L58.2817 -9.57851C58.6033 -9.64293 58.9891 -9.70735 59.3107 -9.70735C59.6322 -9.70735 60.0181 -9.70735 60.2753 -9.77177C61.4329 -10.1583 62.7191 -10.0295 63.8767 -9.96504C64.6484 -9.90062 65.2272 -9.96504 65.8703 -10.1583C66.7063 -10.416 67.7996 -10.6093 68.6356 -10.4804C69.5359 -10.3516 70.2434 -10.2871 70.8865 -10.3516C71.5296 -10.416 72.1727 -10.5448 72.8158 -10.5448C73.3945 -10.5448 74.0376 -10.5448 74.6807 -10.4804C75.3238 -10.416 75.9669 -10.2871 76.61 -10.1583C77.1888 -10.0939 77.7676 -9.8362 78.2821 -9.64293C78.8609 -9.44967 79.4397 -9.2564 79.9542 -9.06313C80.5329 -8.86987 81.1117 -8.80545 81.6905 -8.6766C82.0121 -8.61218 82.3979 -8.54776 82.5909 -8.3545C84.7131 -7.00164 85.2276 -6.74395 87.3498 -6.22858C87.4784 -6.22858 87.6713 -6.22858 87.607 -6.35742C87.4141 -6.74395 86.3851 -7.1949 85.9993 -7.25933C85.6134 -7.32375 85.2276 -7.45259 84.906 -7.58143C84.5845 -7.71028 84.2629 -7.90354 83.9414 -8.09681C83.6198 -8.29007 83.1053 -8.48334 82.6552 -8.6766C81.8834 -8.93429 81.1117 -9.12756 80.4043 -9.38524C77.5104 -10.3516 74.6164 -11.1246 71.5939 -11.5756C71.208 -11.64 70.7578 -11.64 70.3077 -11.7044L69.0215 -11.7688C68.3784 -11.8333 67.671 -11.8977 67.0279 -11.9621C66.3848 -12.0265 65.6774 -12.0265 65.0343 -12.091C64.9056 -12.091 64.777 -12.1554 64.7127 -12.1554C64.4555 -12.2198 64.2625 -12.2842 64.0053 -12.3486L63.2979 -12.5419C62.8477 -12.6708 62.3332 -12.7996 61.8831 -12.864C61.6902 -12.9284 61.3686 -12.9284 61.1114 -12.864C59.8252 -12.5419 58.9248 -12.7996 58.1531 -13.0573C57.5743 -13.2505 57.1885 -13.1861 56.4167 -13.0573C55.3235 -12.864 54.9376 -12.4775 53.1369 -12.3486C52.3009 -12.4775 51.4006 -11.8977 50.4359 -11.5112ZM57.0598 -12.1554C57.0598 -12.091 56.9312 -12.0265 56.8669 -12.0265C56.8026 -12.0265 56.7383 -12.091 56.7383 -12.091C56.7383 -12.091 56.8026 -12.1554 56.8669 -12.1554C56.9955 -12.2198 57.0598 -12.2198 57.0598 -12.1554Z" fill="#CC6666"/>
<path d="M87.5427 95.8155C88.3787 95.6867 89.2791 95.2357 90.1151 94.6559C90.5653 94.3338 90.9511 94.0761 91.4013 93.754C91.8515 93.4319 92.2373 93.1742 92.6875 92.9165C93.2663 92.5944 93.7808 92.2079 94.3596 91.8858C94.9383 91.5637 95.4528 91.1127 95.9673 90.7906C97.0606 90.082 98.0252 89.2445 99.0542 88.407C99.7616 87.8272 100.405 87.183 101.048 86.6032C101.691 85.959 102.27 85.3148 102.913 84.6705C103.234 84.3484 103.427 83.9619 103.749 83.7686C105.228 82.5446 106.128 81.1273 107.029 79.7101C107.286 79.2591 107.607 78.8726 107.929 78.4216C108.058 78.2284 108.25 77.9707 108.379 77.7774C108.508 77.5842 108.636 77.3265 108.829 77.1332C109.151 76.6178 109.472 76.1669 109.73 75.6515C110.051 75.0073 109.73 75.0717 109.472 75.0717C109.408 75.0717 109.408 74.9429 109.472 74.8784C109.73 74.4919 109.987 74.041 110.18 73.6544C110.437 73.2679 110.694 72.8169 110.951 72.4304C111.209 71.9795 111.595 71.6573 111.852 71.2064C111.98 71.0131 112.173 70.8199 112.302 70.5622C112.431 70.3045 112.495 70.1112 112.624 69.7891C112.688 69.5959 112.945 69.2737 113.138 69.0161C113.331 68.6939 113.524 68.3718 113.588 68.1141C113.653 67.8565 113.653 67.5988 113.588 67.4055C113.524 67.1478 113.331 66.8901 113.395 66.568C113.524 66.2459 113.653 65.8594 113.781 65.4729C113.974 65.0863 114.103 64.7642 114.296 64.5065C114.617 63.9911 114.874 63.4758 115.067 62.9604C115.26 62.445 115.389 61.9297 115.453 61.3499C115.71 60.2547 115.839 59.0951 116.032 57.9999L116.161 57.098L116.289 56.2605C116.354 55.6807 116.418 55.1009 116.482 54.5856C116.546 54.1346 116.611 53.2327 116.868 53.1683C117.125 53.1039 116.997 54.0058 116.932 54.4567C116.932 54.9077 116.868 55.3586 116.804 55.874C116.739 56.325 116.675 56.8403 116.611 57.2913C116.546 57.7422 116.482 58.1932 116.354 58.7086C116.289 59.1595 116.161 59.6105 116.096 60.1259C115.968 60.8345 115.839 61.4787 115.775 62.1873C115.71 62.5095 115.646 62.896 115.582 63.2181C115.517 63.5402 115.453 63.9267 115.325 64.2488C115.196 64.7642 115.003 65.344 114.81 65.8594C114.617 66.3748 114.36 66.9546 114.167 67.4699C112.881 70.7554 111.273 73.9765 109.408 77.0044C108.765 78.1639 107.993 79.1947 107.157 80.2254C106.771 80.7408 106.321 81.2562 105.871 81.7071L105.228 82.4802L104.521 83.1888C104.135 83.5754 103.62 84.0263 103.363 84.4129C101.627 86.7965 99.0542 88.8579 96.5461 90.7906C95.903 91.2416 95.2599 91.7569 94.5525 92.2079C93.8451 92.6588 93.1377 93.1098 92.4303 93.4963C91.7228 93.8829 90.9511 94.2694 90.2437 94.7203C89.8579 94.9136 89.5363 95.1069 89.1505 95.3001L88.0572 95.8155C87.6713 96.0088 87.3498 96.202 87.0282 96.3309C86.6424 96.5241 86.1922 96.9107 85.8707 96.9107C85.742 96.9107 85.8707 96.7818 85.935 96.653C86.1922 96.3309 86.3851 96.0088 87.2212 95.8155C87.2855 95.8155 87.4141 95.7511 87.4784 95.7511C87.5427 95.7511 87.4784 95.8799 87.5427 95.8155Z" fill="#CC6666"/>
<path d="M63.941 -22.5917C63.8767 -22.5273 63.3622 -22.5273 63.0407 -22.4629C62.6548 -22.3984 62.0117 -22.4629 61.8188 -22.2696C61.5615 -22.0763 62.076 -21.8186 62.3976 -21.7542C62.9763 -21.6898 63.6838 -21.6898 64.3912 -21.6898C65.0343 -21.6898 65.6774 -21.7542 66.3205 -21.8186C66.642 -21.8186 66.9636 -21.8186 67.2851 -21.7542C67.6067 -21.6898 67.9282 -21.6254 68.1854 -21.4321C68.3141 -21.3677 68.8286 -21.3033 69.0215 -21.3677C69.536 -21.4321 69.9861 -21.4321 70.5006 -21.4321C71.0151 -21.4321 71.4652 -21.3677 71.9797 -21.3033C72.4942 -21.2388 72.9444 -21.1744 73.4589 -21.11C73.9733 -21.0456 74.4235 -20.8523 74.938 -20.7879C75.5168 -20.6591 76.4814 -20.4658 76.803 -20.5302C77.8962 -20.6591 78.5393 -20.3369 79.4397 -19.886C80.1471 -19.5639 80.8545 -19.1774 81.6262 -18.9197C82.0121 -18.7908 82.3979 -18.662 82.8481 -18.5331C83.234 -18.4043 83.6841 -18.3399 84.1986 -18.2754C84.4558 -18.2754 85.1633 -17.9533 85.4205 -17.7601C86.8353 -16.7293 88.7003 -16.0207 90.1151 -16.0207C90.2437 -16.0207 90.2437 -16.0851 90.2437 -16.1495C90.1794 -16.2784 89.472 -16.7293 88.7003 -17.1159C87.9286 -17.5024 87.1569 -17.8889 86.8996 -17.9533C86.5138 -18.0178 86.1279 -18.1466 85.935 -18.2754C85.6777 -18.4043 85.5491 -18.5331 85.5491 -18.7264C85.5491 -18.7908 85.0346 -19.1129 84.906 -19.1129C84.3272 -19.1774 83.7484 -19.3062 83.2983 -19.5639C82.7838 -19.7571 82.3336 -20.0148 81.8835 -20.2081C79.8255 -21.1744 79.0538 -21.2388 77.3175 -21.0456C77.2531 -21.0456 77.0602 -21.0456 76.9316 -21.0456C76.803 -21.0456 76.61 -21.11 76.5457 -21.11C76.4171 -21.1744 76.2885 -21.3677 76.4171 -21.3677C77.9605 -21.561 76.0956 -21.6898 75.9669 -21.7542C75.1309 -21.8831 74.2949 -21.8831 73.5232 -22.0119C72.6228 -22.1408 71.7225 -22.334 70.8222 -22.5273C69.9218 -22.6561 69.0215 -22.785 68.1854 -22.8494C67.4137 -22.9138 66.5777 -22.9782 65.8703 -22.9782C65.0343 -23.0427 64.3912 -22.9782 63.941 -22.5917ZM68.6356 -22.0119C68.5713 -22.0119 68.2498 -22.2052 68.2498 -22.2052C68.4427 -22.2696 68.7642 -22.334 69.0215 -22.3984C69.0858 -22.3984 69.6646 -22.2696 69.6003 -22.1408C69.536 -21.9475 68.8929 -22.0119 68.6356 -22.0119Z" fill="#CC6666"/>
<path d="M3.03957 51.9443C3.48974 53.9414 3.2325 55.4875 3.48974 57.1624C3.55405 57.6778 3.81129 58.3865 4.00422 58.8374C4.19715 59.1595 4.32577 59.546 4.45439 59.8682C4.58301 60.1903 4.71163 60.5768 4.84025 60.8989C5.09749 61.6075 5.22611 62.3162 5.35472 63.0248C5.54765 63.9267 5.74058 64.3133 6.19075 64.5065C6.31937 64.5709 6.57661 64.7642 6.70523 64.9575C6.83385 65.2152 7.09109 65.6661 7.09109 65.9238C7.09109 66.1815 6.76954 66.0527 6.64092 65.9238C6.19075 65.2152 5.80489 64.4421 5.29041 64.3777C5.1618 64.3777 4.71163 63.4758 4.58301 63.0892C4.45439 62.445 4.19715 61.8008 4.00422 61.221C3.8756 60.8989 3.81129 60.5768 3.68267 60.3191C3.55405 59.997 3.48974 59.6749 3.36112 59.3528C3.2325 58.9018 3.10388 58.5153 2.97526 58.0643C2.84664 57.6134 2.71802 57.1624 2.65371 56.7115C2.46078 55.8096 2.33216 54.9077 2.20354 54.0058C2.07492 53.2971 2.07492 52.5885 1.9463 51.8799C1.81768 51.0424 1.81768 50.076 2.20354 50.2693C2.33216 50.3337 2.46078 50.5914 2.5894 50.9135C2.84664 51.1712 2.97526 51.5577 3.03957 51.9443Z" fill="#CC6666"/>
<path d="M109.794 15.4171C109.858 15.546 110.051 15.6748 110.051 15.6748C110.115 15.6748 110.115 15.4816 110.051 15.3527C109.794 14.8373 109.537 14.322 109.279 13.8066C109.022 13.2912 108.701 12.7758 108.443 12.2605C108.315 12.0672 108.25 11.8739 108.122 11.7451C107.993 11.5518 107.865 11.423 107.736 11.2297C107.479 10.9076 107.222 10.5211 107.029 10.199C106.9 10.0057 106.771 9.81245 106.643 9.61918C106.514 9.42591 106.385 9.23265 106.257 9.03938C106 8.65285 105.807 8.26632 105.485 7.87979C105.292 7.55768 104.971 7.23557 104.713 6.97789C104.456 6.7202 104.135 6.39809 103.877 6.1404C103.62 5.94714 103.363 5.8183 103.106 5.62503C102.398 5.04523 102.27 5.04523 102.398 5.75387C102.463 6.07598 102.591 6.39809 102.591 6.7202C102.591 6.84904 102.141 6.7202 102.27 6.97789C102.398 7.3 102.784 7.36442 103.041 7.49326C103.492 7.75095 103.942 8.07306 104.392 8.39516C104.842 8.71727 105.228 9.10381 105.678 9.49034C106.128 9.87687 106.514 10.3278 106.9 10.8432C107.093 11.1009 107.286 11.3586 107.479 11.6163C107.543 11.7451 107.672 11.8739 107.736 12.0028C107.8 12.1316 107.865 12.3249 107.993 12.4537C108.315 13.0335 108.636 13.6777 109.087 14.5152C109.279 14.5797 109.537 14.9662 109.794 15.4171ZM105.099 7.87979C105.035 7.81537 105.035 7.68653 105.099 7.68653C105.164 7.68653 105.228 7.75095 105.292 7.81537C105.357 7.87979 105.485 8.07306 105.421 8.13748C105.357 8.2019 105.164 7.94421 105.099 7.87979Z" fill="#CC6666"/>
<path d="M71.0151 101.098C71.7868 101.227 72.6871 101.034 73.6518 100.776C74.6164 100.518 75.5811 100.132 76.4814 99.9385C78.668 99.3587 80.9188 98.7789 83.041 98.0059C83.5555 97.8126 84.4558 97.2972 84.6488 97.426C84.8417 97.6193 83.6841 98.0058 83.1696 98.2635C82.0121 98.8433 80.7259 99.2299 79.504 99.6808C78.8609 99.8741 78.2178 100.067 77.5747 100.196C76.9316 100.389 76.2885 100.518 75.5811 100.647C75.1309 100.712 74.6807 100.84 74.2306 100.905C73.7804 100.969 73.3302 101.098 72.8801 101.227C71.9797 101.42 71.0794 101.613 70.1791 101.742C69.7932 101.807 69.2787 101.807 69.0215 101.807C68.6999 101.742 68.3784 101.549 68.4427 101.42C68.507 101.291 69.0858 101.163 69.4716 101.098C69.7289 101.034 69.9861 101.034 70.2434 101.034C70.5006 101.034 70.7578 100.969 70.9508 101.034C71.0794 101.034 70.9508 101.098 71.0151 101.098Z" fill="#CC6666"/>
<path d="M113.717 2.53279C113.974 2.98374 113.653 2.91932 113.653 3.04816C113.717 3.24143 113.845 3.62795 113.974 3.7568C114.167 3.95006 114.424 4.07891 114.617 4.14333C115.839 4.40102 116.868 5.56061 117.382 7.49326C117.511 7.94422 117.704 8.45959 117.768 8.7817C117.768 9.03938 117.64 9.36149 117.447 9.23265C117.19 9.03938 116.675 8.45959 116.482 8.07306C116.032 7.3 115.646 6.46251 115.196 5.75388C114.681 4.98082 114.231 4.20775 113.524 3.56354C113.267 3.24143 113.009 2.72605 112.752 2.33952C112.624 2.14626 112.559 1.75972 112.688 1.82415C112.816 1.82415 113.202 1.6953 113.717 2.53279Z" fill="#CC6666"/>
<path d="M105.357 -6.74395C105.099 -6.93722 104.842 -7.13048 104.649 -7.38817C104.456 -7.64585 103.942 -8.09681 104.07 -8.16123C104.199 -8.22565 104.649 -7.7747 104.906 -7.51701C105.357 -7.13048 105.807 -6.80837 106.193 -6.42184C106.771 -5.90647 107.35 -5.32667 107.865 -4.74688C108.379 -4.16708 108.958 -3.58728 109.472 -3.00749C109.665 -2.81422 109.794 -2.36327 109.665 -2.36327C109.537 -2.36327 109.215 -2.68538 108.958 -2.87864C108.829 -2.94307 108.701 -3.13633 108.572 -3.26517C108.443 -3.39402 108.315 -3.45844 108.25 -3.45844C108.122 -3.39402 108.508 -3.07191 108.572 -2.87864C108.636 -2.7498 108.829 -2.42769 108.701 -2.42769C108.572 -2.42769 108.25 -2.7498 108.186 -2.87864C107.607 -3.65171 107.093 -4.16708 106.45 -4.2315C106.45 -4.2315 106 -4.74688 105.871 -4.94014C105.807 -5.06898 105.935 -5.06898 106.064 -5.13341C106.9 -5.26225 106.9 -5.39109 105.357 -6.74395Z" fill="#CC6666"/>
<path d="M94.1023 -13.8303C93.0734 -14.4101 92.4303 -14.7967 91.7872 -15.1832C91.6585 -15.2476 91.5299 -15.3765 91.4013 -15.5053C91.2727 -15.6342 91.2084 -15.6986 91.2084 -15.6986C91.2727 -15.763 91.5942 -15.763 91.8515 -15.6986C92.4946 -15.5053 93.1377 -15.3765 93.7165 -14.7322C93.8451 -14.6034 94.038 -14.4746 94.2309 -14.3457C94.4239 -14.2169 94.6811 -14.0236 94.9383 -13.8948C95.1956 -13.7015 95.6458 -13.3794 95.8387 -13.4438C96.0316 -13.4438 95.5815 -13.8303 95.5815 -13.9592C95.5815 -14.0236 95.7101 -14.088 95.7744 -14.088C96.2245 -13.8948 96.6104 -13.7659 96.9963 -13.5082C97.3821 -13.315 97.6394 -12.9929 97.768 -12.6708C97.768 -12.6063 97.8966 -12.4775 97.9609 -12.4131C98.1538 -12.1554 98.6683 -11.7044 98.4754 -11.64C98.2825 -11.5756 97.5751 -11.9621 97.1249 -12.2198C96.6104 -12.5419 96.0316 -12.7996 95.5171 -13.0573C95.0026 -13.315 94.5525 -13.5727 94.1023 -13.8303Z" fill="#CC6666"/>
<path d="M22.9756 6.65578C23.3615 6.39809 23.683 5.94714 24.0046 5.43176C24.0689 5.30292 24.1975 5.17408 24.2618 5.04523L24.5191 4.6587C24.712 4.40102 24.9049 4.20775 25.0978 3.95007C25.4837 3.56354 25.8053 3.24142 26.1911 2.91932L27.413 1.95299C27.4773 1.88857 27.5416 1.88857 27.5416 1.95299C27.5416 2.01741 27.413 2.14626 27.3487 2.21068C26.8985 2.66163 26.4484 3.177 25.9982 3.62796C25.548 4.14333 25.1622 4.59428 24.712 5.04523C24.2618 5.49619 23.876 6.01156 23.4258 6.46251C23.2329 6.7202 22.9756 6.91347 22.7184 7.17115C22.5255 7.42884 22.2682 7.6221 22.011 7.87979C21.8824 8.00863 21.6251 8.39516 21.5608 8.26632C21.4965 8.2019 21.7537 7.81537 21.9467 7.6221C22.2682 7.23557 22.5898 6.7202 22.9113 6.52694C22.9756 6.65578 22.9756 6.7202 22.9756 6.65578Z" fill="#CC6666"/>
<path d="M58.4747 -14.9255C58.1531 -14.9255 57.1885 -14.9255 57.1885 -15.0544C57.1242 -15.312 57.6386 -15.5697 57.8959 -15.8918C57.9602 -15.9563 58.1531 -16.0207 58.346 -16.0207C59.3107 -15.8274 59.6322 -15.8274 60.2753 -15.6986C60.7255 -15.6342 61.5615 -15.5697 61.4329 -15.3765C61.3686 -15.1832 60.5326 -15.1832 60.0824 -15.1188C59.6322 -15.0544 59.2464 -14.9255 58.4747 -14.9255Z" fill="#CC6666"/>
<path d="M89.7936 -14.0236C89.7936 -13.7015 89.2791 -13.7015 88.5717 -13.8948C88.2501 -13.9592 87.8643 -14.088 87.5427 -14.1525C87.2212 -14.2169 86.8353 -14.2813 86.6424 -14.2813C86.5137 -14.2813 85.9993 -14.6034 85.8063 -14.7322C85.6134 -14.9255 85.5491 -15.2476 85.6777 -15.2476C86.1922 -15.1832 86.6424 -15.1188 87.1568 -15.0544C87.4141 -14.9899 87.6713 -14.9899 87.9286 -14.9255C88.1858 -14.8611 88.443 -14.7967 88.7003 -14.7322C88.8289 -14.7322 89.7936 -14.3457 89.7936 -14.0236Z" fill="#CC6666"/>
<path d="M23.3615 87.6984C23.2972 87.4407 23.7473 87.5051 24.0046 87.6339C24.3904 87.8272 24.7763 88.0849 25.1622 88.3426C25.548 88.6003 25.9982 88.858 26.384 89.1156C26.5127 89.1801 26.8985 89.631 26.8342 89.7599C26.7699 89.8887 26.384 89.6954 26.1911 89.5666C25.6766 89.2445 25.2908 88.9868 24.9049 88.858C24.5191 88.7291 24.1975 88.6003 23.876 88.5359C23.683 88.4714 23.2972 88.407 23.1042 88.1493C22.9756 87.9561 23.2329 88.0205 23.3615 87.956C23.4258 87.8916 23.5544 87.9561 23.4901 87.8916C23.4901 87.7628 23.3615 87.6984 23.3615 87.6984Z" fill="#CC6666"/>
<path d="M4.5187 50.8491C4.58301 51.3645 4.64732 51.8154 4.58301 52.1376C4.58301 52.3308 4.26146 52.3308 4.26146 52.2664C4.13284 51.6866 3.93991 51.1068 3.8756 50.4626C3.81129 49.9472 3.81129 49.4318 3.81129 48.9809C3.81129 48.7232 3.74698 48.2722 3.81129 48.2078C3.8756 48.1434 4.00422 48.5943 4.06853 48.852C4.19715 49.5607 4.39008 50.2693 4.5187 50.8491Z" fill="#CC6666"/>
<path d="M120.148 13.6778C119.955 13.6133 119.633 13.2268 119.505 12.9691C119.183 12.2605 118.926 11.5518 118.604 10.8432C118.54 10.6499 118.476 10.3278 118.669 10.3922C118.797 10.4567 119.055 10.9076 119.055 11.1009C119.376 12.3249 119.633 12.5182 120.019 12.2605C120.083 12.196 120.212 12.2605 120.341 12.4537C120.469 12.647 120.405 12.8403 120.405 12.9047C120.341 13.2268 120.469 13.8066 120.148 13.6778Z" fill="#CC6666"/>
<path d="M122.849 19.9911C122.849 20.0555 122.849 20.2488 122.785 20.2488C122.334 20.2488 121.948 18.8315 121.498 18.3161C121.434 18.2517 121.37 17.6075 121.37 17.2854C121.37 16.7056 121.563 16.8344 121.884 17.6075C122.206 18.3805 122.72 19.1536 122.849 19.9911Z" fill="#CC6666"/>
<path d="M30.8214 -5.45551C30.8214 -5.39109 30.7571 -5.06898 30.4356 -4.87572C29.8568 -4.48919 29.4709 -4.68245 29.0208 -4.61803C28.9564 -4.61803 29.278 -5.19783 29.5352 -5.39109C30.3069 -5.97089 30.95 -6.03531 30.8214 -5.45551Z" fill="#CC6666"/>
<path d="M122.077 16.1902C122.27 16.3835 122.334 16.77 122.399 17.0277C122.463 17.1565 122.463 17.3498 122.463 17.3498C122.399 17.3498 122.334 17.1565 122.27 17.0277C122.013 16.6412 121.691 16.319 121.434 15.9325C121.177 15.546 120.791 15.2883 120.598 14.8373C120.534 14.5797 120.598 14.3864 120.727 14.4508C121.048 14.6441 121.37 14.8373 121.691 15.1595C121.756 15.3527 121.884 15.9969 122.077 16.1902Z" fill="#CC6666"/>
<path d="M29.9854 88.0205C29.7925 87.8272 29.4709 87.7628 29.278 87.6984C29.0208 87.6339 28.8278 87.7628 28.5706 87.5051C28.249 87.183 28.3133 86.9253 28.442 86.7965C28.5063 86.732 29.0207 86.7964 29.1494 86.9253C29.278 87.0541 29.4709 87.2474 29.6638 87.3763C29.8568 87.5051 30.0497 87.6984 30.2426 87.8272C30.6285 88.1493 30.95 88.407 30.95 88.6647C30.95 88.7291 30.7571 88.7291 30.7571 88.6647C30.4999 88.4714 30.114 88.2782 29.9854 88.0849C29.9854 88.0849 30.0497 88.0205 29.9854 88.0205Z" fill="#CC6666"/>
<path d="M37.7669 96.5886C38.2814 96.5886 39.0531 96.9751 39.7605 97.1684C40.0177 97.2328 40.3393 97.4261 40.5965 97.6193C40.6608 97.6837 40.6608 97.877 40.5322 97.877C40.082 97.877 39.5676 97.877 39.0531 97.6837C38.5386 97.4905 37.7669 97.0395 37.574 96.7174C37.6383 96.5886 37.7026 96.5886 37.7669 96.5886Z" fill="#CC6666"/>
<path d="M101.048 -10.6093C101.241 -10.4804 101.434 -10.3516 101.627 -10.1583C101.819 -10.0295 102.077 -9.83619 102.27 -9.64293C102.463 -9.44967 102.656 -9.32082 102.656 -9.19198C102.72 -8.93429 102.077 -9.19198 101.755 -9.2564C101.369 -9.38524 100.855 -9.51409 100.983 -9.96504C101.048 -10.0939 100.726 -10.5448 100.469 -10.8669C100.405 -10.9958 99.8902 -11.2535 99.9545 -11.3179C100.019 -11.3823 100.405 -11.0602 100.662 -10.8669C100.791 -10.8669 100.855 -10.7381 101.048 -10.6093Z" fill="#CC6666"/>
<path d="M45.2268 94.5915C45.0982 94.5271 44.9053 94.4626 44.7124 94.3982C44.5194 94.3338 44.3265 94.2694 44.1336 94.205C43.7477 94.0761 43.0403 93.8828 42.976 93.6896C42.9117 93.4963 43.6834 93.6896 44.0693 93.8184C44.2622 93.8828 44.5194 93.9473 44.7767 94.0117C45.0339 94.0761 45.2268 94.1405 45.4841 94.2694C45.8056 94.3982 46.513 94.7203 46.3844 94.9136C46.2558 95.0424 45.6127 94.9136 45.2911 94.7203C45.2268 94.6559 45.2911 94.6559 45.2268 94.5915Z" fill="#CC6666"/>
<path d="M125.614 39.7041C125.614 39.2532 125.55 38.9955 125.55 38.7378C125.55 38.4801 125.55 37.9648 125.678 37.9648C125.807 37.9648 125.871 38.4801 125.871 38.7378C125.936 39.2532 126 39.833 126 40.4128C126 40.7349 125.936 41.3791 125.807 41.3791C125.678 41.3791 125.678 40.7349 125.614 40.4128C125.614 40.0907 125.614 39.7686 125.614 39.7041Z" fill="#CC6666"/>
<path d="M24.1975 80.5475C24.3261 80.4831 24.5834 80.6764 24.7763 80.8697C25.0335 81.0629 25.2265 81.3206 25.3551 81.4494C25.548 81.6427 25.8696 82.0937 25.8053 82.1581C25.6766 82.3513 24.9692 81.7071 24.5191 81.4494C24.4548 81.4494 23.876 80.612 24.1975 80.5475Z" fill="#CC6666"/>
<path d="M3.2325 34.486C3.16819 35.0658 2.97526 35.5167 2.84664 35.5167C2.78233 35.5167 2.71802 35.259 2.71802 35.0014C2.71802 34.7437 2.71802 34.4216 2.78233 34.2283C2.84664 33.9062 3.03957 33.1331 3.16819 33.1975C3.29681 33.1975 3.29681 33.9062 3.2325 34.486Z" fill="#CC6666"/>
<path d="M29.278 91.0483C29.5352 91.306 29.4709 91.6925 29.3423 91.6281C28.8278 91.4348 28.3133 91.1771 27.7989 90.855C27.7346 90.855 27.5416 90.5329 27.6059 90.5329C27.9275 90.5329 28.1847 90.5329 28.6349 90.6618C28.8278 90.7906 29.1494 90.9195 29.278 91.0483Z" fill="#CC6666"/>
<path d="M110.759 16.9633C111.016 17.4142 111.209 18.1229 111.016 18.1873C110.951 18.2517 110.63 17.8652 110.566 17.7363C110.437 17.3498 110.18 16.7056 110.308 16.6412C110.373 16.5123 110.63 16.7056 110.759 16.9633Z" fill="#CC6666"/>
<path d="M41.947 98.1991C42.5258 98.4568 42.7188 98.8433 42.6544 98.9078C42.5258 98.9722 41.947 98.8433 41.6898 98.7145C41.4326 98.5856 41.2396 98.3279 41.2396 98.1991C41.1753 98.1991 41.4969 98.0058 41.947 98.1991Z" fill="#CC6666"/>
<path d="M8.18436 54.9077C8.05574 54.2635 8.37729 54.1346 8.4416 53.8769C8.4416 53.8769 8.69884 54.1346 8.76315 54.3923C8.82746 54.8433 8.63453 55.1009 8.50591 55.3586C8.50591 55.3586 8.24867 55.2942 8.18436 54.9077Z" fill="#CC6666"/>
<path d="M7.1554 68.8872C6.96247 68.8872 6.64092 68.3074 6.38368 67.9853C6.38368 67.9853 6.31937 67.5344 6.38368 67.5344C6.64092 67.7276 6.96247 67.6632 7.21971 68.1141C7.34833 68.4363 7.41264 68.8872 7.1554 68.8872Z" fill="#CC6666"/>
<path d="M4.71163 56.5182C4.5187 56.5826 4.26146 56.4538 4.06853 56.0029C4.00422 55.874 4.00422 55.6163 4.06853 55.6163C4.26146 55.6163 4.45439 55.6807 4.58301 55.7452C4.71163 55.8096 4.84025 55.7452 4.90456 56.0029C4.96887 56.3894 4.77594 56.5182 4.71163 56.5182Z" fill="#CC6666"/>
<path d="M32.7507 -2.23443C32.4292 -2.04116 32.0433 -1.8479 32.0433 -1.97674C31.979 -2.10558 32.4935 -2.42769 32.7507 -2.62096C32.8793 -2.7498 33.2652 -2.94307 33.3295 -2.87864C33.3295 -2.7498 33.008 -2.42769 32.7507 -2.23443Z" fill="#CC6666"/>
<path d="M6.83385 52.7173C6.89816 52.7173 6.96247 52.9106 7.02678 53.1039C7.09109 53.2971 7.09109 53.4904 7.09109 53.5548C7.09109 53.8769 7.21971 54.4567 7.09109 54.4567C6.96247 54.4567 6.83385 53.9414 6.83385 53.7481C6.83385 53.6193 6.76954 53.3616 6.76954 53.1039C6.70523 52.9106 6.70523 52.7173 6.83385 52.7173Z" fill="#CC6666"/>
<path d="M86.7067 -15.4409C86.6424 -15.312 86.0636 -15.5053 85.9993 -15.5697C85.742 -15.6986 85.3562 -15.8918 85.3562 -16.0207C85.3562 -16.0851 85.742 -16.0207 85.8707 -16.0207C86.1279 -15.8918 86.771 -15.6342 86.7067 -15.4409Z" fill="#CC6666"/>
<path d="M123.299 23.9208C123.235 23.5987 123.428 23.6631 123.428 23.6631C123.556 23.9208 123.685 24.1785 123.813 24.5006C123.813 24.565 123.813 24.8227 123.749 24.8227C123.621 24.7583 123.363 24.3718 123.299 23.9208Z" fill="#CC6666"/>
<path d="M2.26785 48.4011C2.26785 48.0145 2.46078 48.079 2.52509 48.079C2.5894 48.079 2.65371 48.4011 2.71802 48.5943C2.71802 48.7232 2.71802 48.9809 2.65371 49.0453C2.52509 49.0453 2.26785 48.9809 2.26785 48.4011Z" fill="#CC6666"/>
<path d="M53.3942 -19.9504C53.7157 -20.0148 53.9087 -19.9504 53.9087 -19.8216C53.9087 -19.7571 53.5871 -19.6283 53.5228 -19.6283C53.3299 -19.6283 53.0083 -19.6283 53.0083 -19.6927C53.0083 -19.8216 53.1369 -19.886 53.3942 -19.9504Z" fill="#CC6666"/>
<path d="M14.1009 21.6016C13.9722 21.4728 14.2295 20.9574 14.2938 20.8286C14.3581 20.6997 14.4867 20.5065 14.551 20.5709C14.6153 20.6353 14.4867 20.9574 14.4224 21.0863C14.4224 21.2151 14.2938 21.7305 14.1009 21.6016Z" fill="#CC6666"/>
<path d="M17.8951 4.72312C18.0238 4.85197 17.6379 5.30292 17.5093 5.56061L17.3164 5.68945C17.3807 5.43176 17.5093 5.2385 17.5736 4.98081C17.5736 4.91639 17.8308 4.6587 17.8951 4.72312Z" fill="#CC6666"/>
<path d="M53.0083 -18.9197C53.3299 -18.9841 53.3942 -18.7908 53.3942 -18.7908C53.3942 -18.7264 53.2656 -18.5976 53.0726 -18.5331C52.8797 -18.5331 52.8154 -18.5976 52.7511 -18.662C52.7511 -18.7264 52.6868 -18.8552 53.0083 -18.9197Z" fill="#CC6666"/>
<path d="M93.7808 -11.5756C94.038 -11.3823 94.2309 -11.1891 94.1023 -11.1246C94.038 -11.0602 93.7808 -11.1891 93.6522 -11.2535C93.5235 -11.3823 93.202 -11.5756 93.2663 -11.64C93.3949 -11.7688 93.6521 -11.7044 93.7808 -11.5756Z" fill="#CC6666"/>
<path d="M2.71802 29.912C2.84664 30.0409 2.65371 30.5563 2.65371 30.8139C2.65371 30.8784 2.52509 31.0716 2.52509 31.0072C2.46078 30.9428 2.52509 30.4918 2.52509 30.2341C2.52509 30.1697 2.65371 29.7832 2.71802 29.912Z" fill="#CC6666"/>
<path d="M15.8372 71.0131C16.0302 71.2708 16.0945 71.5929 16.0302 71.6573C15.9659 71.7218 15.7729 71.5285 15.7729 71.4641C15.7086 71.2708 15.6443 71.0775 15.58 70.9487C15.58 70.8843 15.7086 70.8199 15.8372 71.0131Z" fill="#CC6666"/>
<path d="M18.0238 1.05109C18.281 0.7934 18.3453 0.922241 18.4096 0.986664C18.4096 1.05108 18.4096 1.24435 18.281 1.3732C18.1524 1.50204 18.0238 1.50204 17.9595 1.43762C17.8951 1.43762 17.7665 1.30877 18.0238 1.05109Z" fill="#CC6666"/>
<path d="M105.164 -6.09973C104.971 -6.22857 104.906 -6.42184 104.971 -6.42184C105.035 -6.48626 105.228 -6.42184 105.421 -6.293C105.549 -6.22857 105.549 -6.03531 105.549 -6.03531C105.421 -6.03531 105.357 -5.97089 105.164 -6.09973Z" fill="#CC6666"/>
<path d="M2.84664 43.4406C2.91095 43.5695 2.97526 43.8271 2.91095 44.0204C2.91095 44.1492 2.78233 44.2781 2.71802 44.1492C2.65371 44.0848 2.65371 43.8271 2.65371 43.6339C2.65371 43.5695 2.71802 43.3762 2.84664 43.4406Z" fill="#CC6666"/>
<path d="M18.0881 2.01741C18.2167 1.88857 18.3453 1.88857 18.3453 1.95299C18.3453 2.01741 18.3453 2.14626 18.281 2.21068C18.2167 2.2751 18.0881 2.33952 18.0238 2.33952C17.9595 2.2751 17.9595 2.14626 18.0881 2.01741Z" fill="#CC6666"/>
<path d="M22.7827 -5.26225C22.847 -5.19783 22.5255 -4.87572 22.4611 -4.8113C22.3968 -4.74688 22.2682 -4.74688 22.2682 -4.74688C22.2682 -4.8113 22.3325 -4.94014 22.4611 -5.00456C22.4611 -5.1334 22.7184 -5.32667 22.7827 -5.26225Z" fill="#CC6666"/>
<path d="M0.402867 35.3235C0.402867 35.4523 0.338557 35.5812 0.274247 35.5167C0.274247 35.4523 0.274247 35.3235 0.274247 35.259C0.274247 35.1302 0.338557 35.0014 0.402867 35.0014C0.402867 35.0014 0.402867 35.1946 0.402867 35.3235Z" fill="#CC6666"/>
<path d="M89.8579 -9.38524C89.8579 -9.32082 89.7292 -9.32082 89.6649 -9.38524C89.5363 -9.44967 89.5363 -9.51409 89.5363 -9.57851C89.5363 -9.57851 89.6006 -9.64293 89.6649 -9.57851C89.7936 -9.51409 89.8579 -9.44967 89.8579 -9.38524Z" fill="#CC6666"/>
<path d="M125.678 30.4918C125.678 30.4274 125.678 30.2986 125.678 30.2986C125.743 30.2986 125.807 30.4274 125.807 30.5563C125.807 30.6207 125.807 30.6851 125.743 30.6851C125.807 30.6851 125.743 30.5563 125.678 30.4918Z" fill="#CC6666"/>
<path d="M91.4656 -16.3428C91.4656 -16.3428 91.337 -16.3428 91.2727 -16.4072C91.2084 -16.4072 91.2084 -16.4716 91.2084 -16.4716C91.2727 -16.4716 91.337 -16.4716 91.4013 -16.4716C91.4656 -16.3428 91.5299 -16.3428 91.4656 -16.3428Z" fill="#CC6666"/>
<path d="M38.2171 91.7569C38.2171 91.6925 38.2171 91.6925 38.2171 91.7569C38.2814 91.7569 38.3457 91.8214 38.41 91.8214V91.8858C38.3457 91.8214 38.2171 91.7569 38.2171 91.7569Z" fill="#CC6666"/>
<path d="M92.3017 -13.5082C92.3017 -13.4438 92.173 -13.5082 92.1087 -13.5082C92.0444 -13.5082 91.9158 -13.6371 91.9801 -13.6371C91.9801 -13.7015 92.1087 -13.6371 92.173 -13.6371C92.173 -13.6371 92.3017 -13.5727 92.3017 -13.5082Z" fill="#CC6666"/>
<path d="M65.5487 102C65.4844 102 65.3558 102 65.3558 101.936L65.4201 101.871C65.4844 101.871 65.6131 101.871 65.6131 101.936C65.6131 102 65.5487 102 65.5487 102Z" fill="#CC6666"/>
<path d="M78.2178 -16.2784C78.2821 -16.2784 78.3464 -16.214 78.3464 -16.214C78.3464 -16.1495 78.4107 -16.0851 78.3464 -16.0851C78.2821 -16.0851 78.2178 -16.0851 78.1535 -16.1495C78.0892 -16.214 78.1535 -16.2784 78.2178 -16.2784Z" fill="#CC6666"/>
<path d="M85.742 -13.2505C85.742 -13.1861 85.8063 -13.1861 85.742 -13.2505C85.742 -13.1861 85.6134 -13.1861 85.5491 -13.2505C85.5491 -13.2505 85.5491 -13.315 85.6134 -13.315C85.6134 -13.2505 85.6777 -13.2505 85.742 -13.2505Z" fill="#CC6666"/>
<path d="M58.4104 -19.4995C58.4104 -19.4995 58.2174 -19.435 58.1531 -19.435C58.0888 -19.435 58.0888 -19.4995 58.0888 -19.4995H58.2174C58.2817 -19.5639 58.4104 -19.5639 58.4104 -19.4995Z" fill="#CC6666"/>
<path d="M61.8831 -22.9782C61.9474 -22.9782 62.1403 -22.9782 62.1403 -22.9782C62.1403 -22.9782 62.0117 -22.9782 61.8831 -22.9138C61.8188 -22.9138 61.7545 -22.9138 61.7545 -22.9138C61.6902 -22.9782 61.8188 -22.9782 61.8831 -22.9782Z" fill="#CC6666"/>
<path d="M28.8921 0.535709L28.9564 0.471287V0.535709C28.9564 0.600132 28.8921 0.600132 28.8921 0.535709Z" fill="#CC6666"/>
<path d="M28.8921 -9.44966C28.8921 -9.44966 28.8278 -9.38524 28.8278 -9.44966C28.7635 -9.44966 28.8278 -9.51409 28.8921 -9.44966Z" fill="#CC6666"/>
<path d="M83.4912 -15.763H83.5555C83.5555 -15.763 83.6198 -15.6986 83.5555 -15.6986C83.5555 -15.763 83.4912 -15.763 83.4912 -15.763Z" fill="#CC6666"/>
<path d="M2.26785 42.8608V42.7964C2.26785 42.7964 2.26785 42.732 2.33216 42.7964C2.26785 42.732 2.26785 42.8608 2.26785 42.8608Z" fill="#CC6666"/>
<path d="M56.4811 -20.6591H56.3524C56.3524 -20.6591 56.3524 -20.7235 56.4167 -20.7235C56.4167 -20.6591 56.4811 -20.6591 56.4811 -20.6591Z" fill="#CC6666"/>
<path d="M52.108 -19.1774C52.0437 -19.1774 52.0437 -19.1774 52.108 -19.1774V-19.1774Z" fill="#CC6666"/>
<path d="M94.7454 -2.17091C94.7454 -2.23412 94.7454 -2.23412 94.7454 -2.17091C94.7454 -2.23412 94.8085 -2.23412 94.7454 -2.17091C94.8085 -2.17091 94.8085 -2.17091 94.7454 -2.17091Z" fill="#CC6666"/>
<path d="M54.4874 101.485C54.4874 101.485 54.6161 101.485 54.6161 101.549C54.6161 101.549 54.5518 101.549 54.4874 101.485Z" fill="#CC6666"/>
<path d="M61.1757 88.9868C88.8437 88.9868 111.273 66.5184 111.273 38.8022C111.273 11.0861 88.8437 -11.3823 61.1757 -11.3823C33.5077 -11.3823 11.0783 11.0861 11.0783 38.8022C11.0783 66.5184 33.5077 88.9868 61.1757 88.9868Z" fill="#CC6666"/>
</g>
</svg>
